%TF.GenerationSoftware,KiCad,Pcbnew,(5.0.0-rc2-199-gf785d2749)*%
%TF.CreationDate,2018-07-19T16:42:48+02:00*%
%TF.ProjectId,LEOLED_rev1,4C454F4C45445F726576312E6B696361,rev?*%
%TF.SameCoordinates,Original*%
%TF.FileFunction,Copper,L2,Bot,Signal*%
%TF.FilePolarity,Positive*%
%FSLAX46Y46*%
G04 Gerber Fmt 4.6, Leading zero omitted, Abs format (unit mm)*
G04 Created by KiCad (PCBNEW (5.0.0-rc2-199-gf785d2749)) date 07/19/18 16:42:48*
%MOMM*%
%LPD*%
G01*
G04 APERTURE LIST*
%ADD10R,1.998980X1.998980*%
%ADD11O,1.998980X1.998980*%
%ADD12R,0.970000X1.500000*%
%ADD13O,1.900000X1.200000*%
%ADD14C,1.450000*%
%ADD15O,1.700000X1.700000*%
%ADD16R,1.700000X1.700000*%
%ADD17R,1.000000X0.670000*%
%ADD18R,2.400000X0.840000*%
%ADD19C,0.500000*%
%ADD20C,1.000000*%
%ADD21C,0.250000*%
%ADD22C,0.500000*%
%ADD23C,0.254000*%
%ADD24C,1.000000*%
%ADD25C,0.300000*%
G04 APERTURE END LIST*
D10*
X78994000Y37744400D03*
D11*
X76454000Y37744400D03*
D12*
X71943600Y24672800D03*
X70033600Y24672800D03*
X71843600Y35872800D03*
X69933600Y35872800D03*
D10*
X67688600Y28872800D03*
D11*
X67688600Y31412800D03*
X2184400Y23368000D03*
X2184400Y25908000D03*
X2184400Y30988000D03*
X2184400Y33528000D03*
D10*
X2184400Y36068000D03*
D11*
X2184400Y28448000D03*
D13*
X1388600Y6772800D03*
X1388600Y13772800D03*
D14*
X4088600Y7772800D03*
X4088600Y12772800D03*
D15*
X66088600Y10752800D03*
X66088600Y13292800D03*
X66088600Y15832800D03*
D16*
X66088600Y18372800D03*
D17*
X5288600Y30347800D03*
X5288600Y28597800D03*
D18*
X18384117Y26272279D03*
D19*
X18384117Y26272279D03*
X17434117Y26272279D03*
X19334117Y26272279D03*
D20*
X7458600Y34822800D03*
X16133596Y31772800D03*
X48358600Y23382800D03*
X36818600Y10332800D03*
X34913600Y10262800D03*
X36818600Y8227800D03*
X34913600Y8227800D03*
X27928600Y24229800D03*
X27928600Y22705800D03*
X29833600Y29055800D03*
X29833600Y30579800D03*
X28309600Y30579800D03*
X21128600Y25012800D03*
X49645600Y15487800D03*
X39739600Y17752800D03*
X19800600Y10513800D03*
X23864600Y17879800D03*
X12418600Y36172800D03*
X15128600Y22072800D03*
X73902600Y31087800D03*
X73902600Y32357800D03*
X82538600Y37437800D03*
X82538600Y35437800D03*
X82538600Y33437800D03*
X82538600Y31437800D03*
X82538600Y29437800D03*
X82538600Y27437800D03*
X82538600Y25437800D03*
X82538600Y23437800D03*
X82538600Y21437800D03*
X82538600Y19437800D03*
X82538600Y17437800D03*
X82538600Y15437800D03*
X82538600Y13437800D03*
X82538600Y11437800D03*
X82538600Y9437800D03*
X82538600Y7437800D03*
X82538600Y5437800D03*
X82538600Y3437800D03*
X82538600Y1437800D03*
X80633600Y5437800D03*
X80633600Y13437800D03*
X80633600Y1437800D03*
X80633600Y17437800D03*
X80633600Y23437800D03*
X80633600Y11437800D03*
X80633600Y3437800D03*
X80633600Y7437800D03*
X80633600Y9437800D03*
X80633600Y21437800D03*
X80633600Y25437800D03*
X80633600Y19437800D03*
X80633600Y15437800D03*
X76448600Y1812800D03*
X78128600Y1812800D03*
X7348600Y33122800D03*
X47638600Y16312800D03*
X34448600Y11512800D03*
X32668600Y9262800D03*
X23698600Y13882800D03*
X32799327Y5944078D03*
X24348600Y15512800D03*
X29298600Y9842800D03*
X16858600Y9152800D03*
X28010793Y7794993D03*
X26362847Y21285183D03*
X26368600Y29362800D03*
X32698600Y10882800D03*
X28471742Y26171528D03*
X25168600Y21167800D03*
X19688600Y34672800D03*
X29818600Y20342800D03*
X15955600Y20342800D03*
X54018600Y35782800D03*
X31148600Y18692800D03*
D21*
X48358600Y23382800D02*
X48848600Y23872800D01*
D22*
X5143600Y28452800D02*
X5288600Y28597800D01*
X2188600Y28452800D02*
X5143600Y28452800D01*
D23*
X13394601Y21245799D02*
X17361599Y21245799D01*
X5288600Y28597800D02*
X6042600Y28597800D01*
X6042600Y28597800D02*
X13394601Y21245799D01*
X17361599Y21245799D02*
X21128600Y25012800D01*
D21*
X49645600Y16194906D02*
X48087706Y17752800D01*
X49645600Y15487800D02*
X49645600Y16194906D01*
X48087706Y17752800D02*
X39739600Y17752800D01*
X19800600Y10513800D02*
X19800600Y11220906D01*
X19800600Y11220906D02*
X19800600Y13815800D01*
X19800600Y13815800D02*
X23864600Y17879800D01*
D23*
X12418600Y36172800D02*
X12418600Y24782800D01*
X12418600Y24782800D02*
X14628601Y22572799D01*
X14628601Y22572799D02*
X15128600Y22072800D01*
D24*
X73428600Y24672800D02*
X74029600Y25273800D01*
X71943600Y24672800D02*
X73428600Y24672800D01*
X74029600Y25273800D02*
X74029600Y30960800D01*
X74029600Y30960800D02*
X73902600Y31087800D01*
X73902600Y31087800D02*
X73902600Y31794906D01*
X73902600Y31794906D02*
X73902600Y32357800D01*
X76448600Y37772800D02*
X76448600Y1812800D01*
X78128600Y1812800D02*
X76448600Y1812800D01*
X74548600Y35872800D02*
X76448600Y37772800D01*
X71843600Y35872800D02*
X74548600Y35872800D01*
D22*
X4643600Y30992800D02*
X5288600Y30347800D01*
X2188600Y30992800D02*
X4643600Y30992800D01*
D23*
X5453600Y30347800D02*
X5288600Y30347800D01*
X7348600Y32242800D02*
X5453600Y30347800D01*
X7348600Y33122800D02*
X7348600Y32242800D01*
D21*
X46931494Y16312800D02*
X46851494Y16392800D01*
X47638600Y16312800D02*
X46931494Y16312800D01*
X46851494Y16392800D02*
X41638600Y16392800D01*
X41638600Y16392800D02*
X36758600Y11512800D01*
X36758600Y11512800D02*
X34448600Y11512800D01*
X62058600Y9262800D02*
X66088600Y13292800D01*
X32668600Y9262800D02*
X62058600Y9262800D01*
D23*
X31031278Y5944078D02*
X32092221Y5944078D01*
X23698600Y13882800D02*
X24198599Y13382801D01*
X24198599Y12776757D02*
X31031278Y5944078D01*
X24198599Y13382801D02*
X24198599Y12776757D01*
X32092221Y5944078D02*
X32799327Y5944078D01*
X24348600Y15512800D02*
X29298600Y10562800D01*
X29298600Y10562800D02*
X29298600Y10549906D01*
X29298600Y10549906D02*
X29298600Y9842800D01*
X27510794Y8294992D02*
X28010793Y7794993D01*
X26652986Y9152800D02*
X27510794Y8294992D01*
X16858600Y9152800D02*
X26652986Y9152800D01*
D21*
X26362847Y21285183D02*
X26362847Y29357047D01*
X26362847Y29357047D02*
X26368600Y29362800D01*
X32698600Y10882800D02*
X30243599Y13337801D01*
X30643601Y19548803D02*
X30643601Y23999669D01*
X30243599Y19148801D02*
X30643601Y19548803D01*
X30243599Y13337801D02*
X30243599Y19148801D01*
X28971741Y25671529D02*
X28471742Y26171528D01*
X30643601Y23999669D02*
X28971741Y25671529D01*
X24668601Y21667799D02*
X24668601Y29742799D01*
X25168600Y21167800D02*
X24668601Y21667799D01*
X24668601Y29742799D02*
X19738600Y34672800D01*
X19738600Y34672800D02*
X19688600Y34672800D01*
X15788600Y20342800D02*
X15955600Y20342800D01*
X29818600Y20342800D02*
X15955600Y20342800D01*
X48238600Y35782800D02*
X31648599Y19192799D01*
X31648599Y19192799D02*
X31148600Y18692800D01*
X54018600Y35782800D02*
X48238600Y35782800D01*
D24*
X67688600Y26873310D02*
X67679600Y26864310D01*
X67688600Y28872800D02*
X67688600Y26873310D01*
X67688600Y25532800D02*
X67688600Y26873310D01*
X68548600Y24672800D02*
X67688600Y25532800D01*
X70033600Y24672800D02*
X68548600Y24672800D01*
X69933600Y35872800D02*
X68609600Y35872800D01*
X67688600Y34951800D02*
X67688600Y31412800D01*
X68609600Y35872800D02*
X67688600Y34951800D01*
D23*
G36*
X69378601Y37642730D02*
X69364691Y37572800D01*
X69419795Y37295772D01*
X69438233Y37268178D01*
X69200835Y37220957D01*
X68990791Y37080609D01*
X68942141Y37007800D01*
X68721383Y37007800D01*
X68609600Y37030035D01*
X68497817Y37007800D01*
X68166745Y36941946D01*
X67791311Y36691089D01*
X67727989Y36596321D01*
X66965081Y35833413D01*
X66870311Y35770089D01*
X66654890Y35447688D01*
X66619454Y35394654D01*
X66531365Y34951800D01*
X66553600Y34840017D01*
X66553601Y32620201D01*
X66510199Y32591201D01*
X66148945Y32050546D01*
X66022089Y31412800D01*
X66148945Y30775054D01*
X66379907Y30429395D01*
X66231301Y30330099D01*
X66090953Y30120055D01*
X66041670Y29872290D01*
X66041670Y27873310D01*
X66090953Y27625545D01*
X66231301Y27415501D01*
X66441345Y27275153D01*
X66553601Y27252824D01*
X66553601Y27021344D01*
X66522365Y26864310D01*
X66553600Y26707281D01*
X66553600Y25644583D01*
X66531365Y25532800D01*
X66612760Y25123600D01*
X66619454Y25089946D01*
X66870311Y24714511D01*
X66965081Y24651187D01*
X67666989Y23949279D01*
X67730311Y23854511D01*
X67956866Y23703132D01*
X68105745Y23603654D01*
X68548600Y23515565D01*
X68660383Y23537800D01*
X69042141Y23537800D01*
X69090791Y23464991D01*
X69300835Y23324643D01*
X69410449Y23302840D01*
X69364691Y23072800D01*
X69378601Y23002869D01*
X69378600Y5542726D01*
X69364691Y5472800D01*
X69419795Y5195772D01*
X69576719Y4960919D01*
X69803965Y4809078D01*
X69811572Y4803995D01*
X69861600Y4794044D01*
X69861600Y4599800D01*
X698600Y4599800D01*
X698600Y9378566D01*
X15723600Y9378566D01*
X15723600Y8927034D01*
X15896393Y8509874D01*
X16215674Y8190593D01*
X16632834Y8017800D01*
X17084366Y8017800D01*
X17501526Y8190593D01*
X17701733Y8390800D01*
X26337356Y8390800D01*
X26875793Y7852362D01*
X26875793Y7569227D01*
X27048586Y7152067D01*
X27367867Y6832786D01*
X27785027Y6659993D01*
X28236559Y6659993D01*
X28653719Y6832786D01*
X28859329Y7038396D01*
X30439396Y5458329D01*
X30481907Y5394707D01*
X30545529Y5352196D01*
X30733959Y5226291D01*
X30733960Y5226291D01*
X30733961Y5226290D01*
X30956230Y5182078D01*
X30956234Y5182078D01*
X31031277Y5167151D01*
X31106320Y5182078D01*
X31956194Y5182078D01*
X32156401Y4981871D01*
X32573561Y4809078D01*
X33025093Y4809078D01*
X33442253Y4981871D01*
X33761534Y5301152D01*
X33934327Y5718312D01*
X33934327Y6169844D01*
X33761534Y6587004D01*
X33442253Y6906285D01*
X33025093Y7079078D01*
X32573561Y7079078D01*
X32156401Y6906285D01*
X31956194Y6706078D01*
X31346909Y6706078D01*
X29345187Y8707800D01*
X29524366Y8707800D01*
X29941526Y8880593D01*
X30260807Y9199874D01*
X30433600Y9617034D01*
X30433600Y10068566D01*
X30260807Y10485726D01*
X30048660Y10697873D01*
X30016388Y10860117D01*
X29847971Y11112171D01*
X29784350Y11154681D01*
X25483600Y15455430D01*
X25483600Y15738566D01*
X25310807Y16155726D01*
X24991526Y16475007D01*
X24574366Y16647800D01*
X24122834Y16647800D01*
X23705674Y16475007D01*
X23386393Y16155726D01*
X23213600Y15738566D01*
X23213600Y15287034D01*
X23346752Y14965575D01*
X23055674Y14845007D01*
X22736393Y14525726D01*
X22563600Y14108566D01*
X22563600Y13657034D01*
X22736393Y13239874D01*
X23055674Y12920593D01*
X23423355Y12768295D01*
X23436599Y12701714D01*
X23436599Y12701709D01*
X23480811Y12479440D01*
X23649229Y12227386D01*
X23712850Y12184876D01*
X25982926Y9914800D01*
X20781002Y9914800D01*
X20935600Y10288034D01*
X20935600Y10739566D01*
X20762807Y11156726D01*
X20560600Y11358933D01*
X20560600Y13500999D01*
X23804402Y16744800D01*
X24090366Y16744800D01*
X24507526Y16917593D01*
X24826807Y17236874D01*
X24999600Y17654034D01*
X24999600Y18105566D01*
X24826807Y18522726D01*
X24507526Y18842007D01*
X24090366Y19014800D01*
X23638834Y19014800D01*
X23221674Y18842007D01*
X22902393Y18522726D01*
X22729600Y18105566D01*
X22729600Y17819602D01*
X19316128Y14406129D01*
X19252672Y14363729D01*
X19210272Y14300273D01*
X19210271Y14300272D01*
X19084697Y14112337D01*
X19025712Y13815800D01*
X19040601Y13740948D01*
X19040600Y11358933D01*
X18838393Y11156726D01*
X18665600Y10739566D01*
X18665600Y10288034D01*
X18820198Y9914800D01*
X17701733Y9914800D01*
X17501526Y10115007D01*
X17084366Y10287800D01*
X16632834Y10287800D01*
X16215674Y10115007D01*
X15896393Y9795726D01*
X15723600Y9378566D01*
X698600Y9378566D01*
X698600Y22649654D01*
X1005999Y22189599D01*
X1546654Y21828345D01*
X2023420Y21733510D01*
X2345380Y21733510D01*
X2822146Y21828345D01*
X3362801Y22189599D01*
X3724055Y22730254D01*
X3850911Y23368000D01*
X3724055Y24005746D01*
X3362801Y24546401D01*
X2822146Y24907655D01*
X2345380Y25002490D01*
X2023420Y25002490D01*
X1546654Y24907655D01*
X1005999Y24546401D01*
X698600Y24086346D01*
X698600Y27729654D01*
X1005999Y27269599D01*
X1546654Y26908345D01*
X2023420Y26813510D01*
X2345380Y26813510D01*
X2822146Y26908345D01*
X3362801Y27269599D01*
X3562052Y27567800D01*
X5056439Y27567800D01*
X5143600Y27550463D01*
X5230761Y27567800D01*
X5230765Y27567800D01*
X5469866Y27615360D01*
X5788600Y27615360D01*
X5921062Y27641708D01*
X12802719Y20760050D01*
X12845230Y20696428D01*
X13097284Y20528011D01*
X13319553Y20483799D01*
X13319554Y20483799D01*
X13394601Y20468871D01*
X13469648Y20483799D01*
X14820600Y20483799D01*
X14820600Y20117034D01*
X14993393Y19699874D01*
X15312674Y19380593D01*
X15729834Y19207800D01*
X16181366Y19207800D01*
X16598526Y19380593D01*
X16800733Y19582800D01*
X28973467Y19582800D01*
X29175674Y19380593D01*
X29489002Y19250809D01*
X29468711Y19148801D01*
X29483600Y19073949D01*
X29483599Y13412648D01*
X29468711Y13337801D01*
X29483599Y13262954D01*
X29483599Y13262950D01*
X29527695Y13041265D01*
X29695670Y12789872D01*
X29759129Y12747470D01*
X31563600Y10942998D01*
X31563600Y10657034D01*
X31736393Y10239874D01*
X31888467Y10087800D01*
X31706393Y9905726D01*
X31533600Y9488566D01*
X31533600Y9037034D01*
X31706393Y8619874D01*
X32025674Y8300593D01*
X32442834Y8127800D01*
X32894366Y8127800D01*
X33311526Y8300593D01*
X33513733Y8502800D01*
X61983753Y8502800D01*
X62058600Y8487912D01*
X62133447Y8502800D01*
X62133452Y8502800D01*
X62355137Y8546896D01*
X62606529Y8714871D01*
X62648931Y8778330D01*
X64582620Y10712018D01*
X64689761Y10173382D01*
X65017975Y9682175D01*
X65509182Y9353961D01*
X65942344Y9267800D01*
X66234856Y9267800D01*
X66668018Y9353961D01*
X67159225Y9682175D01*
X67487439Y10173382D01*
X67602692Y10752800D01*
X67487439Y11332218D01*
X67159225Y11823425D01*
X66860839Y12022800D01*
X67159225Y12222175D01*
X67487439Y12713382D01*
X67602692Y13292800D01*
X67487439Y13872218D01*
X67159225Y14363425D01*
X66860839Y14562800D01*
X67159225Y14762175D01*
X67487439Y15253382D01*
X67602692Y15832800D01*
X67487439Y16412218D01*
X67159225Y16903425D01*
X66668018Y17231639D01*
X66234856Y17317800D01*
X65942344Y17317800D01*
X65509182Y17231639D01*
X65017975Y16903425D01*
X64689761Y16412218D01*
X64574508Y15832800D01*
X64689761Y15253382D01*
X65017975Y14762175D01*
X65316361Y14562800D01*
X65017975Y14363425D01*
X64689761Y13872218D01*
X64574508Y13292800D01*
X64647391Y12926392D01*
X61743799Y10022800D01*
X33513733Y10022800D01*
X33478733Y10057800D01*
X33660807Y10239874D01*
X33794245Y10562022D01*
X33805674Y10550593D01*
X34222834Y10377800D01*
X34674366Y10377800D01*
X35091526Y10550593D01*
X35293733Y10752800D01*
X36683753Y10752800D01*
X36758600Y10737912D01*
X36833447Y10752800D01*
X36833452Y10752800D01*
X37055137Y10796896D01*
X37306529Y10964871D01*
X37348931Y11028330D01*
X41953402Y15632800D01*
X46581223Y15632800D01*
X46634957Y15596896D01*
X46777780Y15568487D01*
X46995674Y15350593D01*
X47412834Y15177800D01*
X47864366Y15177800D01*
X48281526Y15350593D01*
X48510600Y15579667D01*
X48510600Y15262034D01*
X48683393Y14844874D01*
X49002674Y14525593D01*
X49419834Y14352800D01*
X49871366Y14352800D01*
X50288526Y14525593D01*
X50607807Y14844874D01*
X50780600Y15262034D01*
X50780600Y15713566D01*
X50607807Y16130726D01*
X50389913Y16348620D01*
X50361504Y16491443D01*
X50361504Y16491444D01*
X50235929Y16679379D01*
X50193529Y16742835D01*
X50130073Y16785235D01*
X48678037Y18237270D01*
X48635635Y18300729D01*
X48384243Y18468704D01*
X48162558Y18512800D01*
X48162553Y18512800D01*
X48087706Y18527688D01*
X48012859Y18512800D01*
X40584733Y18512800D01*
X40382526Y18715007D01*
X39965366Y18887800D01*
X39513834Y18887800D01*
X39096674Y18715007D01*
X38777393Y18395726D01*
X38604600Y17978566D01*
X38604600Y17527034D01*
X38777393Y17109874D01*
X39096674Y16790593D01*
X39513834Y16617800D01*
X39965366Y16617800D01*
X40382526Y16790593D01*
X40584733Y16992800D01*
X41168601Y16992800D01*
X41090671Y16940729D01*
X41048271Y16877273D01*
X36443799Y12272800D01*
X35293733Y12272800D01*
X35091526Y12475007D01*
X34674366Y12647800D01*
X34222834Y12647800D01*
X33805674Y12475007D01*
X33486393Y12155726D01*
X33352955Y11833578D01*
X33341526Y11845007D01*
X32924366Y12017800D01*
X32638402Y12017800D01*
X31003599Y13652602D01*
X31003599Y17557800D01*
X31374366Y17557800D01*
X31791526Y17730593D01*
X32110807Y18049874D01*
X32283600Y18467034D01*
X32283600Y18752999D01*
X48553403Y35022800D01*
X53173467Y35022800D01*
X53375674Y34820593D01*
X53792834Y34647800D01*
X54244366Y34647800D01*
X54661526Y34820593D01*
X54980807Y35139874D01*
X55153600Y35557034D01*
X55153600Y36008566D01*
X54980807Y36425726D01*
X54661526Y36745007D01*
X54244366Y36917800D01*
X53792834Y36917800D01*
X53375674Y36745007D01*
X53173467Y36542800D01*
X48313446Y36542800D01*
X48238599Y36557688D01*
X48163752Y36542800D01*
X48163748Y36542800D01*
X47942063Y36498704D01*
X47942061Y36498703D01*
X47942062Y36498703D01*
X47754126Y36373129D01*
X47754124Y36373127D01*
X47690671Y36330729D01*
X47648273Y36267276D01*
X31403601Y20022602D01*
X31403601Y23924823D01*
X31418489Y23999670D01*
X31403601Y24074517D01*
X31403601Y24074521D01*
X31359505Y24296206D01*
X31191530Y24547598D01*
X31128074Y24589998D01*
X29606742Y26111329D01*
X29606742Y26397294D01*
X29433949Y26814454D01*
X29114668Y27133735D01*
X28697508Y27306528D01*
X28245976Y27306528D01*
X27828816Y27133735D01*
X27509535Y26814454D01*
X27336742Y26397294D01*
X27336742Y25945762D01*
X27509535Y25528602D01*
X27828816Y25209321D01*
X28245976Y25036528D01*
X28531941Y25036528D01*
X29883602Y23684866D01*
X29883601Y21477800D01*
X29592834Y21477800D01*
X29175674Y21305007D01*
X28973467Y21102800D01*
X27497847Y21102800D01*
X27497847Y21510949D01*
X27325054Y21928109D01*
X27122847Y22130316D01*
X27122847Y28511914D01*
X27330807Y28719874D01*
X27503600Y29137034D01*
X27503600Y29588566D01*
X27330807Y30005726D01*
X27011526Y30325007D01*
X26594366Y30497800D01*
X26142834Y30497800D01*
X25725674Y30325007D01*
X25406393Y30005726D01*
X25396123Y29980931D01*
X25384505Y30039336D01*
X25216530Y30290728D01*
X25153074Y30333128D01*
X20823600Y34662601D01*
X20823600Y34898566D01*
X20650807Y35315726D01*
X20331526Y35635007D01*
X19914366Y35807800D01*
X19462834Y35807800D01*
X19045674Y35635007D01*
X18726393Y35315726D01*
X18553600Y34898566D01*
X18553600Y34447034D01*
X18726393Y34029874D01*
X19045674Y33710593D01*
X19462834Y33537800D01*
X19798799Y33537800D01*
X23908602Y29427996D01*
X23908601Y21742646D01*
X23893713Y21667799D01*
X23908601Y21592952D01*
X23908601Y21592948D01*
X23952697Y21371263D01*
X24033600Y21250183D01*
X24033600Y21102800D01*
X18296230Y21102800D01*
X21071231Y23877800D01*
X21354366Y23877800D01*
X21771526Y24050593D01*
X22090807Y24369874D01*
X22263600Y24787034D01*
X22263600Y25238566D01*
X22090807Y25655726D01*
X21771526Y25975007D01*
X21354366Y26147800D01*
X20902834Y26147800D01*
X20485674Y25975007D01*
X20166393Y25655726D01*
X19993600Y25238566D01*
X19993600Y24955431D01*
X17045969Y22007799D01*
X16263600Y22007799D01*
X16263600Y22298566D01*
X16090807Y22715726D01*
X15771526Y23035007D01*
X15354366Y23207800D01*
X15071231Y23207800D01*
X13180600Y25098430D01*
X13180600Y35329667D01*
X13380807Y35529874D01*
X13553600Y35947034D01*
X13553600Y36398566D01*
X13380807Y36815726D01*
X13061526Y37135007D01*
X12644366Y37307800D01*
X12192834Y37307800D01*
X11775674Y37135007D01*
X11456393Y36815726D01*
X11283600Y36398566D01*
X11283600Y35947034D01*
X11456393Y35529874D01*
X11656600Y35329667D01*
X11656601Y24857848D01*
X11641673Y24782800D01*
X11656601Y24707752D01*
X11700813Y24485483D01*
X11869230Y24233429D01*
X11932851Y24190919D01*
X13993600Y22130169D01*
X13993600Y22007799D01*
X13710232Y22007799D01*
X6634483Y29083547D01*
X6591971Y29147171D01*
X6339917Y29315588D01*
X6289887Y29325539D01*
X6246409Y29390609D01*
X6123402Y29472800D01*
X6246409Y29554991D01*
X6386757Y29765035D01*
X6436040Y30012800D01*
X6436040Y30252610D01*
X7834349Y31650918D01*
X7897971Y31693429D01*
X8066388Y31945483D01*
X8110600Y32167752D01*
X8110600Y32167753D01*
X8125528Y32242800D01*
X8116935Y32286002D01*
X8310807Y32479874D01*
X8483600Y32897034D01*
X8483600Y33348566D01*
X8310807Y33765726D01*
X7991526Y34085007D01*
X7574366Y34257800D01*
X7122834Y34257800D01*
X6705674Y34085007D01*
X6386393Y33765726D01*
X6213600Y33348566D01*
X6213600Y32897034D01*
X6386393Y32479874D01*
X6447218Y32419049D01*
X5458074Y31429904D01*
X5331025Y31556953D01*
X5281649Y31630849D01*
X4988910Y31826452D01*
X4730765Y31877800D01*
X4730761Y31877800D01*
X4643600Y31895137D01*
X4556439Y31877800D01*
X3555638Y31877800D01*
X3362801Y32166401D01*
X2822146Y32527655D01*
X2345380Y32622490D01*
X2023420Y32622490D01*
X1546654Y32527655D01*
X1005999Y32166401D01*
X698600Y31706346D01*
X698600Y34653355D01*
X727101Y34610701D01*
X937145Y34470353D01*
X1184910Y34421070D01*
X3183890Y34421070D01*
X3431655Y34470353D01*
X3641699Y34610701D01*
X3782047Y34820745D01*
X3831330Y35068510D01*
X3831330Y37067490D01*
X3782047Y37315255D01*
X3641699Y37525299D01*
X3431655Y37665647D01*
X3183890Y37714930D01*
X1184910Y37714930D01*
X937145Y37665647D01*
X727101Y37525299D01*
X698600Y37482645D01*
X698600Y39262800D01*
X69378600Y39262800D01*
X69378601Y37642730D01*
X69378601Y37642730D01*
G37*
X69378601Y37642730D02*
X69364691Y37572800D01*
X69419795Y37295772D01*
X69438233Y37268178D01*
X69200835Y37220957D01*
X68990791Y37080609D01*
X68942141Y37007800D01*
X68721383Y37007800D01*
X68609600Y37030035D01*
X68497817Y37007800D01*
X68166745Y36941946D01*
X67791311Y36691089D01*
X67727989Y36596321D01*
X66965081Y35833413D01*
X66870311Y35770089D01*
X66654890Y35447688D01*
X66619454Y35394654D01*
X66531365Y34951800D01*
X66553600Y34840017D01*
X66553601Y32620201D01*
X66510199Y32591201D01*
X66148945Y32050546D01*
X66022089Y31412800D01*
X66148945Y30775054D01*
X66379907Y30429395D01*
X66231301Y30330099D01*
X66090953Y30120055D01*
X66041670Y29872290D01*
X66041670Y27873310D01*
X66090953Y27625545D01*
X66231301Y27415501D01*
X66441345Y27275153D01*
X66553601Y27252824D01*
X66553601Y27021344D01*
X66522365Y26864310D01*
X66553600Y26707281D01*
X66553600Y25644583D01*
X66531365Y25532800D01*
X66612760Y25123600D01*
X66619454Y25089946D01*
X66870311Y24714511D01*
X66965081Y24651187D01*
X67666989Y23949279D01*
X67730311Y23854511D01*
X67956866Y23703132D01*
X68105745Y23603654D01*
X68548600Y23515565D01*
X68660383Y23537800D01*
X69042141Y23537800D01*
X69090791Y23464991D01*
X69300835Y23324643D01*
X69410449Y23302840D01*
X69364691Y23072800D01*
X69378601Y23002869D01*
X69378600Y5542726D01*
X69364691Y5472800D01*
X69419795Y5195772D01*
X69576719Y4960919D01*
X69803965Y4809078D01*
X69811572Y4803995D01*
X69861600Y4794044D01*
X69861600Y4599800D01*
X698600Y4599800D01*
X698600Y9378566D01*
X15723600Y9378566D01*
X15723600Y8927034D01*
X15896393Y8509874D01*
X16215674Y8190593D01*
X16632834Y8017800D01*
X17084366Y8017800D01*
X17501526Y8190593D01*
X17701733Y8390800D01*
X26337356Y8390800D01*
X26875793Y7852362D01*
X26875793Y7569227D01*
X27048586Y7152067D01*
X27367867Y6832786D01*
X27785027Y6659993D01*
X28236559Y6659993D01*
X28653719Y6832786D01*
X28859329Y7038396D01*
X30439396Y5458329D01*
X30481907Y5394707D01*
X30545529Y5352196D01*
X30733959Y5226291D01*
X30733960Y5226291D01*
X30733961Y5226290D01*
X30956230Y5182078D01*
X30956234Y5182078D01*
X31031277Y5167151D01*
X31106320Y5182078D01*
X31956194Y5182078D01*
X32156401Y4981871D01*
X32573561Y4809078D01*
X33025093Y4809078D01*
X33442253Y4981871D01*
X33761534Y5301152D01*
X33934327Y5718312D01*
X33934327Y6169844D01*
X33761534Y6587004D01*
X33442253Y6906285D01*
X33025093Y7079078D01*
X32573561Y7079078D01*
X32156401Y6906285D01*
X31956194Y6706078D01*
X31346909Y6706078D01*
X29345187Y8707800D01*
X29524366Y8707800D01*
X29941526Y8880593D01*
X30260807Y9199874D01*
X30433600Y9617034D01*
X30433600Y10068566D01*
X30260807Y10485726D01*
X30048660Y10697873D01*
X30016388Y10860117D01*
X29847971Y11112171D01*
X29784350Y11154681D01*
X25483600Y15455430D01*
X25483600Y15738566D01*
X25310807Y16155726D01*
X24991526Y16475007D01*
X24574366Y16647800D01*
X24122834Y16647800D01*
X23705674Y16475007D01*
X23386393Y16155726D01*
X23213600Y15738566D01*
X23213600Y15287034D01*
X23346752Y14965575D01*
X23055674Y14845007D01*
X22736393Y14525726D01*
X22563600Y14108566D01*
X22563600Y13657034D01*
X22736393Y13239874D01*
X23055674Y12920593D01*
X23423355Y12768295D01*
X23436599Y12701714D01*
X23436599Y12701709D01*
X23480811Y12479440D01*
X23649229Y12227386D01*
X23712850Y12184876D01*
X25982926Y9914800D01*
X20781002Y9914800D01*
X20935600Y10288034D01*
X20935600Y10739566D01*
X20762807Y11156726D01*
X20560600Y11358933D01*
X20560600Y13500999D01*
X23804402Y16744800D01*
X24090366Y16744800D01*
X24507526Y16917593D01*
X24826807Y17236874D01*
X24999600Y17654034D01*
X24999600Y18105566D01*
X24826807Y18522726D01*
X24507526Y18842007D01*
X24090366Y19014800D01*
X23638834Y19014800D01*
X23221674Y18842007D01*
X22902393Y18522726D01*
X22729600Y18105566D01*
X22729600Y17819602D01*
X19316128Y14406129D01*
X19252672Y14363729D01*
X19210272Y14300273D01*
X19210271Y14300272D01*
X19084697Y14112337D01*
X19025712Y13815800D01*
X19040601Y13740948D01*
X19040600Y11358933D01*
X18838393Y11156726D01*
X18665600Y10739566D01*
X18665600Y10288034D01*
X18820198Y9914800D01*
X17701733Y9914800D01*
X17501526Y10115007D01*
X17084366Y10287800D01*
X16632834Y10287800D01*
X16215674Y10115007D01*
X15896393Y9795726D01*
X15723600Y9378566D01*
X698600Y9378566D01*
X698600Y22649654D01*
X1005999Y22189599D01*
X1546654Y21828345D01*
X2023420Y21733510D01*
X2345380Y21733510D01*
X2822146Y21828345D01*
X3362801Y22189599D01*
X3724055Y22730254D01*
X3850911Y23368000D01*
X3724055Y24005746D01*
X3362801Y24546401D01*
X2822146Y24907655D01*
X2345380Y25002490D01*
X2023420Y25002490D01*
X1546654Y24907655D01*
X1005999Y24546401D01*
X698600Y24086346D01*
X698600Y27729654D01*
X1005999Y27269599D01*
X1546654Y26908345D01*
X2023420Y26813510D01*
X2345380Y26813510D01*
X2822146Y26908345D01*
X3362801Y27269599D01*
X3562052Y27567800D01*
X5056439Y27567800D01*
X5143600Y27550463D01*
X5230761Y27567800D01*
X5230765Y27567800D01*
X5469866Y27615360D01*
X5788600Y27615360D01*
X5921062Y27641708D01*
X12802719Y20760050D01*
X12845230Y20696428D01*
X13097284Y20528011D01*
X13319553Y20483799D01*
X13319554Y20483799D01*
X13394601Y20468871D01*
X13469648Y20483799D01*
X14820600Y20483799D01*
X14820600Y20117034D01*
X14993393Y19699874D01*
X15312674Y19380593D01*
X15729834Y19207800D01*
X16181366Y19207800D01*
X16598526Y19380593D01*
X16800733Y19582800D01*
X28973467Y19582800D01*
X29175674Y19380593D01*
X29489002Y19250809D01*
X29468711Y19148801D01*
X29483600Y19073949D01*
X29483599Y13412648D01*
X29468711Y13337801D01*
X29483599Y13262954D01*
X29483599Y13262950D01*
X29527695Y13041265D01*
X29695670Y12789872D01*
X29759129Y12747470D01*
X31563600Y10942998D01*
X31563600Y10657034D01*
X31736393Y10239874D01*
X31888467Y10087800D01*
X31706393Y9905726D01*
X31533600Y9488566D01*
X31533600Y9037034D01*
X31706393Y8619874D01*
X32025674Y8300593D01*
X32442834Y8127800D01*
X32894366Y8127800D01*
X33311526Y8300593D01*
X33513733Y8502800D01*
X61983753Y8502800D01*
X62058600Y8487912D01*
X62133447Y8502800D01*
X62133452Y8502800D01*
X62355137Y8546896D01*
X62606529Y8714871D01*
X62648931Y8778330D01*
X64582620Y10712018D01*
X64689761Y10173382D01*
X65017975Y9682175D01*
X65509182Y9353961D01*
X65942344Y9267800D01*
X66234856Y9267800D01*
X66668018Y9353961D01*
X67159225Y9682175D01*
X67487439Y10173382D01*
X67602692Y10752800D01*
X67487439Y11332218D01*
X67159225Y11823425D01*
X66860839Y12022800D01*
X67159225Y12222175D01*
X67487439Y12713382D01*
X67602692Y13292800D01*
X67487439Y13872218D01*
X67159225Y14363425D01*
X66860839Y14562800D01*
X67159225Y14762175D01*
X67487439Y15253382D01*
X67602692Y15832800D01*
X67487439Y16412218D01*
X67159225Y16903425D01*
X66668018Y17231639D01*
X66234856Y17317800D01*
X65942344Y17317800D01*
X65509182Y17231639D01*
X65017975Y16903425D01*
X64689761Y16412218D01*
X64574508Y15832800D01*
X64689761Y15253382D01*
X65017975Y14762175D01*
X65316361Y14562800D01*
X65017975Y14363425D01*
X64689761Y13872218D01*
X64574508Y13292800D01*
X64647391Y12926392D01*
X61743799Y10022800D01*
X33513733Y10022800D01*
X33478733Y10057800D01*
X33660807Y10239874D01*
X33794245Y10562022D01*
X33805674Y10550593D01*
X34222834Y10377800D01*
X34674366Y10377800D01*
X35091526Y10550593D01*
X35293733Y10752800D01*
X36683753Y10752800D01*
X36758600Y10737912D01*
X36833447Y10752800D01*
X36833452Y10752800D01*
X37055137Y10796896D01*
X37306529Y10964871D01*
X37348931Y11028330D01*
X41953402Y15632800D01*
X46581223Y15632800D01*
X46634957Y15596896D01*
X46777780Y15568487D01*
X46995674Y15350593D01*
X47412834Y15177800D01*
X47864366Y15177800D01*
X48281526Y15350593D01*
X48510600Y15579667D01*
X48510600Y15262034D01*
X48683393Y14844874D01*
X49002674Y14525593D01*
X49419834Y14352800D01*
X49871366Y14352800D01*
X50288526Y14525593D01*
X50607807Y14844874D01*
X50780600Y15262034D01*
X50780600Y15713566D01*
X50607807Y16130726D01*
X50389913Y16348620D01*
X50361504Y16491443D01*
X50361504Y16491444D01*
X50235929Y16679379D01*
X50193529Y16742835D01*
X50130073Y16785235D01*
X48678037Y18237270D01*
X48635635Y18300729D01*
X48384243Y18468704D01*
X48162558Y18512800D01*
X48162553Y18512800D01*
X48087706Y18527688D01*
X48012859Y18512800D01*
X40584733Y18512800D01*
X40382526Y18715007D01*
X39965366Y18887800D01*
X39513834Y18887800D01*
X39096674Y18715007D01*
X38777393Y18395726D01*
X38604600Y17978566D01*
X38604600Y17527034D01*
X38777393Y17109874D01*
X39096674Y16790593D01*
X39513834Y16617800D01*
X39965366Y16617800D01*
X40382526Y16790593D01*
X40584733Y16992800D01*
X41168601Y16992800D01*
X41090671Y16940729D01*
X41048271Y16877273D01*
X36443799Y12272800D01*
X35293733Y12272800D01*
X35091526Y12475007D01*
X34674366Y12647800D01*
X34222834Y12647800D01*
X33805674Y12475007D01*
X33486393Y12155726D01*
X33352955Y11833578D01*
X33341526Y11845007D01*
X32924366Y12017800D01*
X32638402Y12017800D01*
X31003599Y13652602D01*
X31003599Y17557800D01*
X31374366Y17557800D01*
X31791526Y17730593D01*
X32110807Y18049874D01*
X32283600Y18467034D01*
X32283600Y18752999D01*
X48553403Y35022800D01*
X53173467Y35022800D01*
X53375674Y34820593D01*
X53792834Y34647800D01*
X54244366Y34647800D01*
X54661526Y34820593D01*
X54980807Y35139874D01*
X55153600Y35557034D01*
X55153600Y36008566D01*
X54980807Y36425726D01*
X54661526Y36745007D01*
X54244366Y36917800D01*
X53792834Y36917800D01*
X53375674Y36745007D01*
X53173467Y36542800D01*
X48313446Y36542800D01*
X48238599Y36557688D01*
X48163752Y36542800D01*
X48163748Y36542800D01*
X47942063Y36498704D01*
X47942061Y36498703D01*
X47942062Y36498703D01*
X47754126Y36373129D01*
X47754124Y36373127D01*
X47690671Y36330729D01*
X47648273Y36267276D01*
X31403601Y20022602D01*
X31403601Y23924823D01*
X31418489Y23999670D01*
X31403601Y24074517D01*
X31403601Y24074521D01*
X31359505Y24296206D01*
X31191530Y24547598D01*
X31128074Y24589998D01*
X29606742Y26111329D01*
X29606742Y26397294D01*
X29433949Y26814454D01*
X29114668Y27133735D01*
X28697508Y27306528D01*
X28245976Y27306528D01*
X27828816Y27133735D01*
X27509535Y26814454D01*
X27336742Y26397294D01*
X27336742Y25945762D01*
X27509535Y25528602D01*
X27828816Y25209321D01*
X28245976Y25036528D01*
X28531941Y25036528D01*
X29883602Y23684866D01*
X29883601Y21477800D01*
X29592834Y21477800D01*
X29175674Y21305007D01*
X28973467Y21102800D01*
X27497847Y21102800D01*
X27497847Y21510949D01*
X27325054Y21928109D01*
X27122847Y22130316D01*
X27122847Y28511914D01*
X27330807Y28719874D01*
X27503600Y29137034D01*
X27503600Y29588566D01*
X27330807Y30005726D01*
X27011526Y30325007D01*
X26594366Y30497800D01*
X26142834Y30497800D01*
X25725674Y30325007D01*
X25406393Y30005726D01*
X25396123Y29980931D01*
X25384505Y30039336D01*
X25216530Y30290728D01*
X25153074Y30333128D01*
X20823600Y34662601D01*
X20823600Y34898566D01*
X20650807Y35315726D01*
X20331526Y35635007D01*
X19914366Y35807800D01*
X19462834Y35807800D01*
X19045674Y35635007D01*
X18726393Y35315726D01*
X18553600Y34898566D01*
X18553600Y34447034D01*
X18726393Y34029874D01*
X19045674Y33710593D01*
X19462834Y33537800D01*
X19798799Y33537800D01*
X23908602Y29427996D01*
X23908601Y21742646D01*
X23893713Y21667799D01*
X23908601Y21592952D01*
X23908601Y21592948D01*
X23952697Y21371263D01*
X24033600Y21250183D01*
X24033600Y21102800D01*
X18296230Y21102800D01*
X21071231Y23877800D01*
X21354366Y23877800D01*
X21771526Y24050593D01*
X22090807Y24369874D01*
X22263600Y24787034D01*
X22263600Y25238566D01*
X22090807Y25655726D01*
X21771526Y25975007D01*
X21354366Y26147800D01*
X20902834Y26147800D01*
X20485674Y25975007D01*
X20166393Y25655726D01*
X19993600Y25238566D01*
X19993600Y24955431D01*
X17045969Y22007799D01*
X16263600Y22007799D01*
X16263600Y22298566D01*
X16090807Y22715726D01*
X15771526Y23035007D01*
X15354366Y23207800D01*
X15071231Y23207800D01*
X13180600Y25098430D01*
X13180600Y35329667D01*
X13380807Y35529874D01*
X13553600Y35947034D01*
X13553600Y36398566D01*
X13380807Y36815726D01*
X13061526Y37135007D01*
X12644366Y37307800D01*
X12192834Y37307800D01*
X11775674Y37135007D01*
X11456393Y36815726D01*
X11283600Y36398566D01*
X11283600Y35947034D01*
X11456393Y35529874D01*
X11656600Y35329667D01*
X11656601Y24857848D01*
X11641673Y24782800D01*
X11656601Y24707752D01*
X11700813Y24485483D01*
X11869230Y24233429D01*
X11932851Y24190919D01*
X13993600Y22130169D01*
X13993600Y22007799D01*
X13710232Y22007799D01*
X6634483Y29083547D01*
X6591971Y29147171D01*
X6339917Y29315588D01*
X6289887Y29325539D01*
X6246409Y29390609D01*
X6123402Y29472800D01*
X6246409Y29554991D01*
X6386757Y29765035D01*
X6436040Y30012800D01*
X6436040Y30252610D01*
X7834349Y31650918D01*
X7897971Y31693429D01*
X8066388Y31945483D01*
X8110600Y32167752D01*
X8110600Y32167753D01*
X8125528Y32242800D01*
X8116935Y32286002D01*
X8310807Y32479874D01*
X8483600Y32897034D01*
X8483600Y33348566D01*
X8310807Y33765726D01*
X7991526Y34085007D01*
X7574366Y34257800D01*
X7122834Y34257800D01*
X6705674Y34085007D01*
X6386393Y33765726D01*
X6213600Y33348566D01*
X6213600Y32897034D01*
X6386393Y32479874D01*
X6447218Y32419049D01*
X5458074Y31429904D01*
X5331025Y31556953D01*
X5281649Y31630849D01*
X4988910Y31826452D01*
X4730765Y31877800D01*
X4730761Y31877800D01*
X4643600Y31895137D01*
X4556439Y31877800D01*
X3555638Y31877800D01*
X3362801Y32166401D01*
X2822146Y32527655D01*
X2345380Y32622490D01*
X2023420Y32622490D01*
X1546654Y32527655D01*
X1005999Y32166401D01*
X698600Y31706346D01*
X698600Y34653355D01*
X727101Y34610701D01*
X937145Y34470353D01*
X1184910Y34421070D01*
X3183890Y34421070D01*
X3431655Y34470353D01*
X3641699Y34610701D01*
X3782047Y34820745D01*
X3831330Y35068510D01*
X3831330Y37067490D01*
X3782047Y37315255D01*
X3641699Y37525299D01*
X3431655Y37665647D01*
X3183890Y37714930D01*
X1184910Y37714930D01*
X937145Y37665647D01*
X727101Y37525299D01*
X698600Y37482645D01*
X698600Y39262800D01*
X69378600Y39262800D01*
X69378601Y37642730D01*
D25*
G36*
X83563600Y497800D02*
X72513600Y497800D01*
X72513600Y3121094D01*
X72523885Y3172800D01*
X72483139Y3377645D01*
X72367104Y3551304D01*
X72193445Y3667339D01*
X72147860Y3676406D01*
X72151094Y4969837D01*
X72193445Y4978261D01*
X72367104Y5094296D01*
X72483139Y5267955D01*
X72523885Y5472800D01*
X72513600Y5524506D01*
X72513600Y23021094D01*
X72523885Y23072800D01*
X72483139Y23277645D01*
X72367104Y23451304D01*
X72348127Y23463984D01*
X72428600Y23463984D01*
X72604181Y23498909D01*
X72753032Y23598368D01*
X72836175Y23722800D01*
X73335041Y23722800D01*
X73428600Y23704190D01*
X73522159Y23722800D01*
X73522164Y23722800D01*
X73799271Y23777920D01*
X74113511Y23987889D01*
X74166512Y24067210D01*
X74635189Y24535888D01*
X74714511Y24588889D01*
X74924480Y24903129D01*
X74979600Y25180236D01*
X74979600Y25180240D01*
X74998210Y25273799D01*
X74979600Y25367358D01*
X74979600Y30867242D01*
X74998210Y30960801D01*
X74979600Y31054360D01*
X74979600Y31054364D01*
X74924480Y31331471D01*
X74852600Y31439047D01*
X74852600Y32546767D01*
X74816091Y32634908D01*
X74797480Y32728471D01*
X74744481Y32807790D01*
X74707971Y32895932D01*
X74640509Y32963394D01*
X74587511Y33042711D01*
X74508194Y33095709D01*
X74440732Y33163171D01*
X74352590Y33199681D01*
X74273271Y33252680D01*
X74179708Y33271291D01*
X74091567Y33307800D01*
X73996164Y33307800D01*
X73902600Y33326411D01*
X73809036Y33307800D01*
X73713633Y33307800D01*
X73625492Y33271291D01*
X73531930Y33252680D01*
X73452613Y33199682D01*
X73364468Y33163171D01*
X73297004Y33095707D01*
X73217690Y33042711D01*
X73164693Y32963396D01*
X73097229Y32895932D01*
X73060719Y32807789D01*
X73007720Y32728471D01*
X72989109Y32634908D01*
X72952600Y32546767D01*
X72952600Y31181359D01*
X72933990Y31087800D01*
X72952600Y30994241D01*
X72952600Y30898833D01*
X72989109Y30810691D01*
X73007720Y30717130D01*
X73060718Y30637812D01*
X73079601Y30592226D01*
X73079600Y25667302D01*
X73035098Y25622800D01*
X72836175Y25622800D01*
X72753032Y25747232D01*
X72604181Y25846691D01*
X72428600Y25881616D01*
X72425449Y25881616D01*
X72483139Y25967955D01*
X72523885Y26172800D01*
X72513600Y26224506D01*
X72513600Y34321094D01*
X72523885Y34372800D01*
X72483139Y34577645D01*
X72414087Y34680988D01*
X72504181Y34698909D01*
X72653032Y34798368D01*
X72736175Y34922800D01*
X74455041Y34922800D01*
X74548600Y34904190D01*
X74642159Y34922800D01*
X74642164Y34922800D01*
X74919271Y34977920D01*
X75233511Y35187889D01*
X75286511Y35267209D01*
X75498600Y35479298D01*
X75498601Y2001769D01*
X75498600Y2001767D01*
X75498600Y1906364D01*
X75479989Y1812800D01*
X75498600Y1719236D01*
X75498600Y1623833D01*
X75535109Y1535692D01*
X75553720Y1442129D01*
X75606719Y1362810D01*
X75643229Y1274668D01*
X75710691Y1207206D01*
X75763689Y1127889D01*
X75843006Y1074891D01*
X75910468Y1007429D01*
X75998610Y970919D01*
X76077929Y917920D01*
X76171492Y899309D01*
X76259633Y862800D01*
X76355036Y862800D01*
X76448600Y844189D01*
X76542164Y862800D01*
X78317567Y862800D01*
X78405708Y899309D01*
X78499271Y917920D01*
X78578590Y970919D01*
X78666732Y1007429D01*
X78734194Y1074891D01*
X78813511Y1127889D01*
X78866509Y1207206D01*
X78933971Y1274668D01*
X78970481Y1362810D01*
X79023480Y1442129D01*
X79042091Y1535692D01*
X79078600Y1623833D01*
X79078600Y1719236D01*
X79097211Y1812800D01*
X79078600Y1906364D01*
X79078600Y2001767D01*
X79042091Y2089908D01*
X79023480Y2183471D01*
X78970481Y2262790D01*
X78933971Y2350932D01*
X78866509Y2418394D01*
X78813511Y2497711D01*
X78734194Y2550709D01*
X78666732Y2618171D01*
X78578590Y2654681D01*
X78499271Y2707680D01*
X78405708Y2726291D01*
X78317567Y2762800D01*
X77398600Y2762800D01*
X77398600Y36632275D01*
X77499024Y36699376D01*
X77535694Y36754256D01*
X77535694Y36744910D01*
X77570619Y36569329D01*
X77670078Y36420478D01*
X77818929Y36321019D01*
X77994510Y36286094D01*
X79993490Y36286094D01*
X80169071Y36321019D01*
X80317922Y36420478D01*
X80417381Y36569329D01*
X80452306Y36744910D01*
X80452306Y38743890D01*
X80417381Y38919471D01*
X80317922Y39068322D01*
X80169071Y39167781D01*
X79993490Y39202706D01*
X77994510Y39202706D01*
X77818929Y39167781D01*
X77670078Y39068322D01*
X77570619Y38919471D01*
X77535694Y38743890D01*
X77535694Y38734544D01*
X77499024Y38789424D01*
X77019563Y39109790D01*
X76596762Y39193890D01*
X76311238Y39193890D01*
X75888437Y39109790D01*
X75408976Y38789424D01*
X75088610Y38309963D01*
X74976113Y37744400D01*
X74992801Y37660504D01*
X74155098Y36822800D01*
X72736175Y36822800D01*
X72653032Y36947232D01*
X72504181Y37046691D01*
X72328600Y37081616D01*
X72298466Y37081616D01*
X72467104Y37194296D01*
X72583139Y37367955D01*
X72623885Y37572800D01*
X72613600Y37624506D01*
X72613600Y39447800D01*
X83563601Y39447800D01*
X83563600Y497800D01*
X83563600Y497800D01*
G37*
X83563600Y497800D02*
X72513600Y497800D01*
X72513600Y3121094D01*
X72523885Y3172800D01*
X72483139Y3377645D01*
X72367104Y3551304D01*
X72193445Y3667339D01*
X72147860Y3676406D01*
X72151094Y4969837D01*
X72193445Y4978261D01*
X72367104Y5094296D01*
X72483139Y5267955D01*
X72523885Y5472800D01*
X72513600Y5524506D01*
X72513600Y23021094D01*
X72523885Y23072800D01*
X72483139Y23277645D01*
X72367104Y23451304D01*
X72348127Y23463984D01*
X72428600Y23463984D01*
X72604181Y23498909D01*
X72753032Y23598368D01*
X72836175Y23722800D01*
X73335041Y23722800D01*
X73428600Y23704190D01*
X73522159Y23722800D01*
X73522164Y23722800D01*
X73799271Y23777920D01*
X74113511Y23987889D01*
X74166512Y24067210D01*
X74635189Y24535888D01*
X74714511Y24588889D01*
X74924480Y24903129D01*
X74979600Y25180236D01*
X74979600Y25180240D01*
X74998210Y25273799D01*
X74979600Y25367358D01*
X74979600Y30867242D01*
X74998210Y30960801D01*
X74979600Y31054360D01*
X74979600Y31054364D01*
X74924480Y31331471D01*
X74852600Y31439047D01*
X74852600Y32546767D01*
X74816091Y32634908D01*
X74797480Y32728471D01*
X74744481Y32807790D01*
X74707971Y32895932D01*
X74640509Y32963394D01*
X74587511Y33042711D01*
X74508194Y33095709D01*
X74440732Y33163171D01*
X74352590Y33199681D01*
X74273271Y33252680D01*
X74179708Y33271291D01*
X74091567Y33307800D01*
X73996164Y33307800D01*
X73902600Y33326411D01*
X73809036Y33307800D01*
X73713633Y33307800D01*
X73625492Y33271291D01*
X73531930Y33252680D01*
X73452613Y33199682D01*
X73364468Y33163171D01*
X73297004Y33095707D01*
X73217690Y33042711D01*
X73164693Y32963396D01*
X73097229Y32895932D01*
X73060719Y32807789D01*
X73007720Y32728471D01*
X72989109Y32634908D01*
X72952600Y32546767D01*
X72952600Y31181359D01*
X72933990Y31087800D01*
X72952600Y30994241D01*
X72952600Y30898833D01*
X72989109Y30810691D01*
X73007720Y30717130D01*
X73060718Y30637812D01*
X73079601Y30592226D01*
X73079600Y25667302D01*
X73035098Y25622800D01*
X72836175Y25622800D01*
X72753032Y25747232D01*
X72604181Y25846691D01*
X72428600Y25881616D01*
X72425449Y25881616D01*
X72483139Y25967955D01*
X72523885Y26172800D01*
X72513600Y26224506D01*
X72513600Y34321094D01*
X72523885Y34372800D01*
X72483139Y34577645D01*
X72414087Y34680988D01*
X72504181Y34698909D01*
X72653032Y34798368D01*
X72736175Y34922800D01*
X74455041Y34922800D01*
X74548600Y34904190D01*
X74642159Y34922800D01*
X74642164Y34922800D01*
X74919271Y34977920D01*
X75233511Y35187889D01*
X75286511Y35267209D01*
X75498600Y35479298D01*
X75498601Y2001769D01*
X75498600Y2001767D01*
X75498600Y1906364D01*
X75479989Y1812800D01*
X75498600Y1719236D01*
X75498600Y1623833D01*
X75535109Y1535692D01*
X75553720Y1442129D01*
X75606719Y1362810D01*
X75643229Y1274668D01*
X75710691Y1207206D01*
X75763689Y1127889D01*
X75843006Y1074891D01*
X75910468Y1007429D01*
X75998610Y970919D01*
X76077929Y917920D01*
X76171492Y899309D01*
X76259633Y862800D01*
X76355036Y862800D01*
X76448600Y844189D01*
X76542164Y862800D01*
X78317567Y862800D01*
X78405708Y899309D01*
X78499271Y917920D01*
X78578590Y970919D01*
X78666732Y1007429D01*
X78734194Y1074891D01*
X78813511Y1127889D01*
X78866509Y1207206D01*
X78933971Y1274668D01*
X78970481Y1362810D01*
X79023480Y1442129D01*
X79042091Y1535692D01*
X79078600Y1623833D01*
X79078600Y1719236D01*
X79097211Y1812800D01*
X79078600Y1906364D01*
X79078600Y2001767D01*
X79042091Y2089908D01*
X79023480Y2183471D01*
X78970481Y2262790D01*
X78933971Y2350932D01*
X78866509Y2418394D01*
X78813511Y2497711D01*
X78734194Y2550709D01*
X78666732Y2618171D01*
X78578590Y2654681D01*
X78499271Y2707680D01*
X78405708Y2726291D01*
X78317567Y2762800D01*
X77398600Y2762800D01*
X77398600Y36632275D01*
X77499024Y36699376D01*
X77535694Y36754256D01*
X77535694Y36744910D01*
X77570619Y36569329D01*
X77670078Y36420478D01*
X77818929Y36321019D01*
X77994510Y36286094D01*
X79993490Y36286094D01*
X80169071Y36321019D01*
X80317922Y36420478D01*
X80417381Y36569329D01*
X80452306Y36744910D01*
X80452306Y38743890D01*
X80417381Y38919471D01*
X80317922Y39068322D01*
X80169071Y39167781D01*
X79993490Y39202706D01*
X77994510Y39202706D01*
X77818929Y39167781D01*
X77670078Y39068322D01*
X77570619Y38919471D01*
X77535694Y38743890D01*
X77535694Y38734544D01*
X77499024Y38789424D01*
X77019563Y39109790D01*
X76596762Y39193890D01*
X76311238Y39193890D01*
X75888437Y39109790D01*
X75408976Y38789424D01*
X75088610Y38309963D01*
X74976113Y37744400D01*
X74992801Y37660504D01*
X74155098Y36822800D01*
X72736175Y36822800D01*
X72653032Y36947232D01*
X72504181Y37046691D01*
X72328600Y37081616D01*
X72298466Y37081616D01*
X72467104Y37194296D01*
X72583139Y37367955D01*
X72623885Y37572800D01*
X72613600Y37624506D01*
X72613600Y39447800D01*
X83563601Y39447800D01*
X83563600Y497800D01*
M02*
