%TF.GenerationSoftware,KiCad,Pcbnew,(6.0.0-rc1-dev-233-g53236a383)*%
%TF.CreationDate,2018-10-19T16:41:34+02:00*%
%TF.ProjectId,LEOLED_rev1,4C454F4C45445F726576312E6B696361,1*%
%TF.SameCoordinates,Original*%
%TF.FileFunction,Legend,Bot*%
%TF.FilePolarity,Positive*%
%FSLAX46Y46*%
G04 Gerber Fmt 4.6, Leading zero omitted, Abs format (unit mm)*
G04 Created by KiCad (PCBNEW (6.0.0-rc1-dev-233-g53236a383)) date 10/19/18 16:41:34*
%MOMM*%
%LPD*%
G01*
G04 APERTURE LIST*
%ADD10C,0.375000*%
%ADD11C,0.500000*%
%ADD12C,0.120000*%
%ADD13C,0.125000*%
%ADD14C,3.500000*%
%ADD15R,1.998980X1.998980*%
%ADD16O,1.998980X1.998980*%
%ADD17R,0.970000X1.500000*%
%ADD18O,1.900000X1.200000*%
%ADD19C,1.450000*%
%ADD20O,1.700000X1.700000*%
%ADD21R,1.700000X1.700000*%
%ADD22R,1.000000X0.670000*%
G04 APERTURE END LIST*
D10*
X57476400Y34458258D02*
X57190685Y34363020D01*
X57095447Y34267781D01*
X57000209Y34077305D01*
X57000209Y33791591D01*
X57095447Y33601115D01*
X57190685Y33505877D01*
X57381161Y33410639D01*
X58143066Y33410639D01*
X58143066Y35410639D01*
X57476400Y35410639D01*
X57285923Y35315400D01*
X57190685Y35220162D01*
X57095447Y35029686D01*
X57095447Y34839210D01*
X57190685Y34648734D01*
X57285923Y34553496D01*
X57476400Y34458258D01*
X58143066Y34458258D01*
X56238304Y33982067D02*
X55285923Y33982067D01*
X56428780Y33410639D02*
X55762114Y35410639D01*
X55095447Y33410639D01*
X54714495Y35410639D02*
X53571638Y35410639D01*
X54143066Y33410639D02*
X54143066Y35410639D01*
X53190685Y35410639D02*
X52047828Y35410639D01*
X52619257Y33410639D02*
X52619257Y35410639D01*
X51381161Y34458258D02*
X50714495Y34458258D01*
X50428780Y33410639D02*
X51381161Y33410639D01*
X51381161Y35410639D01*
X50428780Y35410639D01*
X48428780Y33410639D02*
X49095447Y34363020D01*
X49571638Y33410639D02*
X49571638Y35410639D01*
X48809733Y35410639D01*
X48619257Y35315400D01*
X48524019Y35220162D01*
X48428780Y35029686D01*
X48428780Y34743972D01*
X48524019Y34553496D01*
X48619257Y34458258D01*
X48809733Y34363020D01*
X49571638Y34363020D01*
X47190685Y34363020D02*
X47190685Y33410639D01*
X47857352Y35410639D02*
X47190685Y34363020D01*
X46524019Y35410639D01*
D11*
X61493400Y38074600D02*
X6477000Y38074600D01*
X61493400Y3073400D02*
X61493400Y38074600D01*
X6477000Y3073400D02*
X61493400Y3073400D01*
X6477000Y38049200D02*
X6477000Y3073400D01*
D12*
X70838600Y25382800D02*
X71138600Y25382800D01*
X70838600Y23962800D02*
X71138600Y23962800D01*
X70738600Y36582800D02*
X71038600Y36582800D01*
X70738600Y35162800D02*
X71038600Y35162800D01*
X4778600Y29252800D02*
X4778600Y29692800D01*
X5798600Y29252800D02*
X5798600Y29692800D01*
D13*
X74352600Y24294134D02*
X74585933Y24627467D01*
X74752600Y24294134D02*
X74752600Y24994134D01*
X74485933Y24994134D01*
X74419266Y24960800D01*
X74385933Y24927467D01*
X74352600Y24860800D01*
X74352600Y24760800D01*
X74385933Y24694134D01*
X74419266Y24660800D01*
X74485933Y24627467D01*
X74752600Y24627467D01*
X74085933Y24927467D02*
X74052600Y24960800D01*
X73985933Y24994134D01*
X73819266Y24994134D01*
X73752600Y24960800D01*
X73719266Y24927467D01*
X73685933Y24860800D01*
X73685933Y24794134D01*
X73719266Y24694134D01*
X74119266Y24294134D01*
X73685933Y24294134D01*
X73452600Y24994134D02*
X72985933Y24994134D01*
X73285933Y24294134D01*
X74225600Y35343134D02*
X74458933Y35676467D01*
X74625600Y35343134D02*
X74625600Y36043134D01*
X74358933Y36043134D01*
X74292266Y36009800D01*
X74258933Y35976467D01*
X74225600Y35909800D01*
X74225600Y35809800D01*
X74258933Y35743134D01*
X74292266Y35709800D01*
X74358933Y35676467D01*
X74625600Y35676467D01*
X73958933Y35976467D02*
X73925600Y36009800D01*
X73858933Y36043134D01*
X73692266Y36043134D01*
X73625600Y36009800D01*
X73592266Y35976467D01*
X73558933Y35909800D01*
X73558933Y35843134D01*
X73592266Y35743134D01*
X73992266Y35343134D01*
X73558933Y35343134D01*
X73158933Y35743134D02*
X73225600Y35776467D01*
X73258933Y35809800D01*
X73292266Y35876467D01*
X73292266Y35909800D01*
X73258933Y35976467D01*
X73225600Y36009800D01*
X73158933Y36043134D01*
X73025600Y36043134D01*
X72958933Y36009800D01*
X72925600Y35976467D01*
X72892266Y35909800D01*
X72892266Y35876467D01*
X72925600Y35809800D01*
X72958933Y35776467D01*
X73025600Y35743134D01*
X73158933Y35743134D01*
X73225600Y35709800D01*
X73258933Y35676467D01*
X73292266Y35609800D01*
X73292266Y35476467D01*
X73258933Y35409800D01*
X73225600Y35376467D01*
X73158933Y35343134D01*
X73025600Y35343134D01*
X72958933Y35376467D01*
X72925600Y35409800D01*
X72892266Y35476467D01*
X72892266Y35609800D01*
X72925600Y35676467D01*
X72958933Y35709800D01*
X73025600Y35743134D01*
X6555266Y30372800D02*
X6555266Y29972800D01*
X7255266Y30172800D02*
X6555266Y30172800D01*
X7255266Y29739467D02*
X6555266Y29739467D01*
X6888600Y29739467D02*
X6888600Y29339467D01*
X7255266Y29339467D02*
X6555266Y29339467D01*
X7255266Y28639467D02*
X7255266Y29039467D01*
X7255266Y28839467D02*
X6555266Y28839467D01*
X6655266Y28906134D01*
X6721933Y28972800D01*
X6755266Y29039467D01*
%LPC*%
D14*
X81280000Y23799800D03*
X66065400Y6781800D03*
X64693800Y36703000D03*
X3454400Y18186400D03*
X81280000Y4368800D03*
D15*
X78994000Y37744400D03*
D16*
X76454000Y37744400D03*
D17*
X71943600Y24672800D03*
X70033600Y24672800D03*
X71843600Y35872800D03*
X69933600Y35872800D03*
D15*
X67688600Y28872800D03*
D16*
X67688600Y31412800D03*
X2184400Y23368000D03*
X2184400Y25908000D03*
X2184400Y30988000D03*
X2184400Y33528000D03*
D15*
X2184400Y36068000D03*
D16*
X2184400Y28448000D03*
D18*
X1388600Y6772800D03*
X1388600Y13772800D03*
D19*
X4088600Y7772800D03*
X4088600Y12772800D03*
D20*
X66088600Y10752800D03*
X66088600Y13292800D03*
X66088600Y15832800D03*
D21*
X66088600Y18372800D03*
D22*
X5288600Y30347800D03*
X5288600Y28597800D03*
M02*
