%TF.GenerationSoftware,KiCad,Pcbnew,(5.0.0-rc2-199-gf785d2749)*%
%TF.CreationDate,2018-07-19T16:42:48+02:00*%
%TF.ProjectId,LEOLED_rev1,4C454F4C45445F726576312E6B696361,rev?*%
%TF.SameCoordinates,Original*%
%TF.FileFunction,Legend,Top*%
%TF.FilePolarity,Positive*%
%FSLAX46Y46*%
G04 Gerber Fmt 4.6, Leading zero omitted, Abs format (unit mm)*
G04 Created by KiCad (PCBNEW (5.0.0-rc2-199-gf785d2749)) date 07/19/18 16:42:48*
%MOMM*%
%LPD*%
G01*
G04 APERTURE LIST*
%ADD10C,0.100000*%
%ADD11C,0.150000*%
%ADD12C,0.120000*%
%ADD13C,0.500000*%
%ADD14C,0.300000*%
%ADD15C,0.125000*%
%ADD16R,0.600000X0.600000*%
%ADD17R,1.998980X1.998980*%
%ADD18O,1.998980X1.998980*%
%ADD19R,1.220000X1.250000*%
%ADD20R,1.500000X0.970000*%
%ADD21R,3.200000X0.700000*%
%ADD22R,1.150000X1.300000*%
%ADD23R,0.900000X0.950000*%
%ADD24R,1.900000X1.100000*%
%ADD25R,1.000000X0.670000*%
%ADD26R,0.670000X1.000000*%
%ADD27R,1.600000X1.000000*%
%ADD28R,0.650000X0.575000*%
%ADD29R,1.000000X1.600000*%
%ADD30R,0.800000X0.800000*%
%ADD31R,1.900000X1.200000*%
%ADD32O,1.900000X1.200000*%
%ADD33R,1.900000X1.500000*%
%ADD34C,1.450000*%
%ADD35R,1.350000X0.400000*%
%ADD36O,1.700000X1.700000*%
%ADD37R,1.700000X1.700000*%
%ADD38R,0.740000X2.400000*%
%ADD39R,2.000000X1.800000*%
%ADD40R,0.900000X0.800000*%
%ADD41R,0.800000X0.900000*%
%ADD42C,1.500000*%
%ADD43R,1.200000X0.840000*%
%ADD44R,0.350000X0.600000*%
%ADD45R,1.300000X0.550000*%
%ADD46R,0.500000X1.000000*%
G04 APERTURE END LIST*
D10*
X29988600Y14272800D02*
X29988600Y13772800D01*
X29988600Y14272800D02*
X30488600Y14272800D01*
X29988600Y72800D02*
X29988600Y572800D01*
X29988600Y72800D02*
X30488600Y72800D01*
X39988600Y72800D02*
X39488600Y72800D01*
X39988600Y72800D02*
X39988600Y572800D01*
X39988600Y14272800D02*
X39988600Y13772800D01*
X39988600Y14272800D02*
X39488600Y14272800D01*
X39188600Y4472800D02*
X39588600Y4472800D01*
X34988600Y72800D02*
X34738600Y72800D01*
X34988600Y72800D02*
X35238600Y72800D01*
X34988600Y14272800D02*
X34738600Y14272800D01*
X34988600Y14272800D02*
X35238600Y14272800D01*
X39988600Y7172800D02*
X39988600Y7422800D01*
X39988600Y7172800D02*
X39988600Y6922800D01*
X29988600Y7172800D02*
X29988600Y7422800D01*
X29988600Y7172800D02*
X29988600Y6922800D01*
D11*
X80523080Y34645600D02*
X80523080Y40843200D01*
X74924920Y34645600D02*
X80523080Y34645600D01*
X74924920Y40843200D02*
X74924920Y34645600D01*
X80523080Y40843200D02*
X74924920Y40843200D01*
X80523080Y35044380D02*
X74924920Y35044380D01*
X77724000Y40843200D02*
X77724000Y40345360D01*
X75123040Y40345360D02*
X75123040Y40843200D01*
X80324960Y40843200D02*
X80324960Y40345360D01*
X74924920Y40345360D02*
X80523080Y40345360D01*
D12*
X13988600Y21072800D02*
X13988600Y17222800D01*
X11988600Y21072800D02*
X11988600Y17222800D01*
X13988600Y21072800D02*
X11988600Y21072800D01*
D11*
X14769403Y22042800D02*
G75*
G03X14769403Y22042800I-560803J0D01*
G01*
D12*
X61146286Y32958630D02*
X61146286Y33258630D01*
X59726286Y32958630D02*
X59726286Y33258630D01*
X81398600Y29122800D02*
X81398600Y29422800D01*
X79978600Y29122800D02*
X79978600Y29422800D01*
D11*
X76688600Y34282800D02*
X76688600Y32612800D01*
X77618600Y33412800D02*
X75708600Y33412800D01*
D13*
X77518600Y25962800D02*
X75878600Y25962800D01*
D11*
X76688600Y22282800D02*
X76688600Y20612800D01*
X77618600Y21412800D02*
X75708600Y21412800D01*
D13*
X77518600Y13962800D02*
X75878600Y13962800D01*
D11*
X76688600Y10282800D02*
X76688600Y8612800D01*
X77618600Y9412800D02*
X75708600Y9412800D01*
D13*
X77518600Y1962800D02*
X75878600Y1962800D01*
D12*
X60736286Y27853630D02*
X56886286Y27853630D01*
X60736286Y29853630D02*
X56886286Y29853630D01*
X60736286Y27853630D02*
X60736286Y29853630D01*
D11*
X61136286Y27853630D02*
X61136286Y29853630D01*
X44621250Y10571758D02*
X44621250Y13671758D01*
X42021250Y10571758D02*
X42021250Y13671758D01*
D12*
X11494117Y24452279D02*
X11494117Y24892279D01*
X10474117Y24452279D02*
X10474117Y24892279D01*
X15494117Y24452279D02*
X15494117Y24892279D01*
X14474117Y24452279D02*
X14474117Y24892279D01*
X30978600Y29667800D02*
X30978600Y29227800D01*
X31998600Y29667800D02*
X31998600Y29227800D01*
X22074117Y22592279D02*
X22074117Y22152279D01*
X23094117Y22592279D02*
X23094117Y22152279D01*
X18374117Y22592279D02*
X18374117Y22152279D01*
X19394117Y22592279D02*
X19394117Y22152279D01*
X36608600Y16482800D02*
X36168600Y16482800D01*
X36608600Y15462800D02*
X36168600Y15462800D01*
X10474117Y28092279D02*
X10474117Y27652279D01*
X11494117Y28092279D02*
X11494117Y27652279D01*
X14474117Y28092279D02*
X14474117Y27652279D01*
X15494117Y28092279D02*
X15494117Y27652279D01*
X31998600Y26252800D02*
X31998600Y26692800D01*
X30978600Y26252800D02*
X30978600Y26692800D01*
X30398600Y26252800D02*
X30398600Y26692800D01*
X29378600Y26252800D02*
X29378600Y26692800D01*
X39268600Y15462800D02*
X39708600Y15462800D01*
X39268600Y16482800D02*
X39708600Y16482800D01*
X49452071Y22405423D02*
X49012071Y22405423D01*
X49452071Y21385423D02*
X49012071Y21385423D01*
X54326286Y32973630D02*
X54326286Y32533630D01*
X55346286Y32973630D02*
X55346286Y32533630D01*
D11*
X64589800Y27343720D02*
X70787400Y27343720D01*
X64589800Y32941880D02*
X64589800Y27343720D01*
X70787400Y32941880D02*
X64589800Y32941880D01*
X70787400Y27343720D02*
X70787400Y32941880D01*
X64988580Y27343720D02*
X64988580Y32941880D01*
X70787400Y30142800D02*
X70289560Y30142800D01*
X70289560Y32743760D02*
X70787400Y32743760D01*
X70787400Y27541840D02*
X70289560Y27541840D01*
X70289560Y32941880D02*
X70289560Y27343720D01*
X5283200Y37612320D02*
X-914400Y37612320D01*
X-914400Y21823680D02*
X5283200Y21823680D01*
X-914400Y34815780D02*
X-416560Y34815780D01*
X-416560Y22021800D02*
X-914400Y22021800D01*
X-914400Y37414200D02*
X-416560Y37414200D01*
X-416560Y32217360D02*
X-914400Y32217360D01*
X-416560Y29720540D02*
X-914400Y29720540D01*
X-416560Y27218640D02*
X-914400Y27218640D01*
X-416560Y24617680D02*
X-914400Y24617680D01*
X-416560Y21818600D02*
X-416560Y37617400D01*
X-914400Y37617400D02*
X-914400Y21818600D01*
X4884420Y21818600D02*
X4884420Y37617400D01*
X5283200Y21818600D02*
X5283200Y37617400D01*
D12*
X14004117Y22872279D02*
X14004117Y24872279D01*
X11964117Y24872279D02*
X11964117Y22872279D01*
X11964117Y29672279D02*
X11964117Y27672279D01*
X14004117Y27672279D02*
X14004117Y29672279D01*
X52132071Y20675423D02*
X54132071Y20675423D01*
X54132071Y22715423D02*
X52132071Y22715423D01*
X52132071Y18475423D02*
X54132071Y18475423D01*
X54132071Y20515423D02*
X52132071Y20515423D01*
X56432039Y26017833D02*
X56432039Y24017833D01*
X58472039Y24017833D02*
X58472039Y26017833D01*
X58732039Y26017833D02*
X58732039Y24017833D01*
X60772039Y24017833D02*
X60772039Y26017833D01*
X27528600Y21042800D02*
X27528600Y18772800D01*
X29048600Y21042800D02*
X27528600Y21042800D01*
X29048600Y18772800D02*
X29048600Y21042800D01*
D11*
X29088600Y21372800D02*
X27488600Y21372800D01*
D12*
X4938600Y11972800D02*
X4488600Y11972800D01*
X4938600Y11972800D02*
X4938600Y11522800D01*
X4388600Y6372800D02*
X4388600Y6822800D01*
X2538600Y6372800D02*
X4388600Y6372800D01*
X-11400Y14172800D02*
X238600Y14172800D01*
X-11400Y6372800D02*
X238600Y6372800D01*
X2538600Y14172800D02*
X4388600Y14172800D01*
X4388600Y14172800D02*
X4388600Y13722800D01*
X64758600Y19702800D02*
X66088600Y19702800D01*
X64758600Y18372800D02*
X64758600Y19702800D01*
X64758600Y17102800D02*
X67418600Y17102800D01*
X67418600Y17102800D02*
X67418600Y9422800D01*
X64758600Y17102800D02*
X64758600Y9422800D01*
X64758600Y9422800D02*
X67418600Y9422800D01*
D14*
X20918600Y19712800D02*
X23418600Y19712800D01*
X23418600Y19712800D02*
X23418600Y11822800D01*
X23418600Y11822800D02*
X16198600Y11822800D01*
X16198600Y11822800D02*
X16208600Y19742800D01*
X16208600Y19742800D02*
X18638600Y19742800D01*
D12*
X48386286Y23103630D02*
X48386286Y25153630D01*
X55486286Y23103630D02*
X48386286Y23103630D01*
X55486286Y25153630D02*
X55486286Y23103630D01*
X48386286Y30203630D02*
X48386286Y28153630D01*
X55486286Y30203630D02*
X48386286Y30203630D01*
X55486286Y28153630D02*
X55486286Y30203630D01*
X17644117Y32292279D02*
X16184117Y32292279D01*
X17644117Y35452279D02*
X15484117Y35452279D01*
X17644117Y35452279D02*
X17644117Y34522279D01*
X17644117Y32292279D02*
X17644117Y33222279D01*
X9908600Y33012800D02*
X9908600Y34472800D01*
X13068600Y33012800D02*
X13068600Y35172800D01*
X13068600Y33012800D02*
X12138600Y33012800D01*
X9908600Y33012800D02*
X10838600Y33012800D01*
X24168600Y28862800D02*
X24608600Y28862800D01*
X24168600Y29882800D02*
X24608600Y29882800D01*
X24168600Y27262800D02*
X24608600Y27262800D01*
X24168600Y28282800D02*
X24608600Y28282800D01*
X20198600Y32227800D02*
X20198600Y32667800D01*
X19178600Y32227800D02*
X19178600Y32667800D01*
X24608600Y31482800D02*
X24168600Y31482800D01*
X24608600Y30462800D02*
X24168600Y30462800D01*
X24608600Y26682800D02*
X24168600Y26682800D01*
X24608600Y25662800D02*
X24168600Y25662800D01*
X20778600Y32692800D02*
X20778600Y32252800D01*
X21798600Y32692800D02*
X21798600Y32252800D01*
X22598600Y28352800D02*
X22598600Y28792800D01*
X21578600Y28352800D02*
X21578600Y28792800D01*
X13774117Y34192279D02*
X13774117Y33752279D01*
X14794117Y34192279D02*
X14794117Y33752279D01*
X18394117Y30252279D02*
X18394117Y30692279D01*
X17374117Y30252279D02*
X17374117Y30692279D01*
X16774117Y22617279D02*
X16774117Y22177279D01*
X17794117Y22617279D02*
X17794117Y22177279D01*
X36608600Y18082800D02*
X36168600Y18082800D01*
X36608600Y17062800D02*
X36168600Y17062800D01*
X21494117Y22152279D02*
X21494117Y22592279D01*
X20474117Y22152279D02*
X20474117Y22592279D01*
X35283600Y32782800D02*
X34843600Y32782800D01*
X35283600Y31762800D02*
X34843600Y31762800D01*
X39998600Y28377800D02*
X39998600Y28817800D01*
X38978600Y28377800D02*
X38978600Y28817800D01*
X38693600Y24562800D02*
X39133600Y24562800D01*
X38693600Y25582800D02*
X39133600Y25582800D01*
X35393600Y24562800D02*
X35833600Y24562800D01*
X35393600Y25582800D02*
X35833600Y25582800D01*
X8278600Y34192800D02*
X8278600Y33752800D01*
X9298600Y34192800D02*
X9298600Y33752800D01*
X28798600Y16152800D02*
X28798600Y16592800D01*
X27778600Y16152800D02*
X27778600Y16592800D01*
X17783600Y11082800D02*
X17343600Y11082800D01*
X17783600Y10062800D02*
X17343600Y10062800D01*
X33608600Y18082800D02*
X33168600Y18082800D01*
X33608600Y17062800D02*
X33168600Y17062800D01*
X30578600Y16892800D02*
X30578600Y16452800D01*
X31598600Y16892800D02*
X31598600Y16452800D01*
X58816286Y35343630D02*
X59256286Y35343630D01*
X58816286Y36363630D02*
X59256286Y36363630D01*
X52016286Y33043630D02*
X52456286Y33043630D01*
X52016286Y34063630D02*
X52456286Y34063630D01*
X61242039Y25067833D02*
X61242039Y24767833D01*
X62662039Y25067833D02*
X62662039Y24767833D01*
X62898600Y29352800D02*
X62898600Y29792800D01*
X61878600Y29352800D02*
X61878600Y29792800D01*
X33168600Y15462800D02*
X33608600Y15462800D01*
X33168600Y16482800D02*
X33608600Y16482800D01*
X11138600Y13772800D02*
G75*
G03X11138600Y13772800I-950000J0D01*
G01*
X11138600Y17472800D02*
G75*
G03X11138600Y17472800I-950000J0D01*
G01*
X27438600Y33172800D02*
G75*
G03X27438600Y33172800I-950000J0D01*
G01*
X26338600Y23272800D02*
G75*
G03X26338600Y23272800I-950000J0D01*
G01*
X24638600Y33172800D02*
G75*
G03X24638600Y33172800I-950000J0D01*
G01*
X11138600Y21172800D02*
G75*
G03X11138600Y21172800I-950000J0D01*
G01*
X37238600Y19872800D02*
G75*
G03X37238600Y19872800I-950000J0D01*
G01*
X8050600Y37272800D02*
G75*
G03X8050600Y37272800I-950000J0D01*
G01*
X45698600Y29712800D02*
G75*
G03X45698600Y29712800I-950000J0D01*
G01*
X39538600Y21872800D02*
G75*
G03X39538600Y21872800I-950000J0D01*
G01*
X9828600Y26134800D02*
G75*
G03X9828600Y26134800I-950000J0D01*
G01*
X7838600Y28012800D02*
G75*
G03X7838600Y28012800I-950000J0D01*
G01*
X46138600Y16372800D02*
G75*
G03X46138600Y16372800I-950000J0D01*
G01*
X26938600Y11772800D02*
G75*
G03X26938600Y11772800I-950000J0D01*
G01*
X56978600Y35802800D02*
G75*
G03X56978600Y35802800I-950000J0D01*
G01*
X46182071Y19595423D02*
G75*
G03X46182071Y19595423I-950000J0D01*
G01*
X49782071Y19495423D02*
G75*
G03X49782071Y19495423I-950000J0D01*
G01*
X63738600Y32472800D02*
G75*
G03X63738600Y32472800I-950000J0D01*
G01*
X67138600Y24972800D02*
G75*
G03X67138600Y24972800I-950000J0D01*
G01*
D11*
X16759117Y24922279D02*
X16754117Y27472279D01*
X20004117Y25072279D02*
X20004117Y27472279D01*
X16426216Y24852279D02*
G75*
G03X16426216Y24852279I-382099J0D01*
G01*
X35021443Y30722800D02*
G75*
G03X35021443Y30722800I-282843J0D01*
G01*
D12*
X58646286Y31853630D02*
X58646286Y33253630D01*
X56326286Y33253630D02*
X56326286Y31353630D01*
D11*
X55709535Y30833630D02*
G75*
G03X55709535Y30833630I-463249J0D01*
G01*
D15*
X26899266Y4863134D02*
X26899266Y5563134D01*
X27132600Y5063134D01*
X27365933Y5563134D01*
X27365933Y4863134D01*
X27832600Y5563134D02*
X27965933Y5563134D01*
X28032600Y5529800D01*
X28099266Y5463134D01*
X28132600Y5329800D01*
X28132600Y5096467D01*
X28099266Y4963134D01*
X28032600Y4896467D01*
X27965933Y4863134D01*
X27832600Y4863134D01*
X27765933Y4896467D01*
X27699266Y4963134D01*
X27665933Y5096467D01*
X27665933Y5329800D01*
X27699266Y5463134D01*
X27765933Y5529800D01*
X27832600Y5563134D01*
X28432600Y4863134D02*
X28432600Y5563134D01*
X28599266Y5563134D01*
X28699266Y5529800D01*
X28765933Y5463134D01*
X28799266Y5396467D01*
X28832600Y5263134D01*
X28832600Y5163134D01*
X28799266Y5029800D01*
X28765933Y4963134D01*
X28699266Y4896467D01*
X28599266Y4863134D01*
X28432600Y4863134D01*
X29499266Y4863134D02*
X29099266Y4863134D01*
X29299266Y4863134D02*
X29299266Y5563134D01*
X29232600Y5463134D01*
X29165933Y5396467D01*
X29099266Y5363134D01*
X73350466Y35206734D02*
X73350466Y34706734D01*
X73317133Y34606734D01*
X73250466Y34540067D01*
X73150466Y34506734D01*
X73083800Y34506734D01*
X73617133Y35206734D02*
X74083800Y35206734D01*
X73783800Y34506734D01*
X15164266Y16982134D02*
X14464266Y16982134D01*
X14464266Y17148800D01*
X14497600Y17248800D01*
X14564266Y17315467D01*
X14630933Y17348800D01*
X14764266Y17382134D01*
X14864266Y17382134D01*
X14997600Y17348800D01*
X15064266Y17315467D01*
X15130933Y17248800D01*
X15164266Y17148800D01*
X15164266Y16982134D01*
X15164266Y18048800D02*
X15164266Y17648800D01*
X15164266Y17848800D02*
X14464266Y17848800D01*
X14564266Y17782134D01*
X14630933Y17715467D01*
X14664266Y17648800D01*
X61519266Y35590800D02*
X61185933Y35357467D01*
X61519266Y35190800D02*
X60819266Y35190800D01*
X60819266Y35457467D01*
X60852600Y35524134D01*
X60885933Y35557467D01*
X60952600Y35590800D01*
X61052600Y35590800D01*
X61119266Y35557467D01*
X61152600Y35524134D01*
X61185933Y35457467D01*
X61185933Y35190800D01*
X60885933Y35857467D02*
X60852600Y35890800D01*
X60819266Y35957467D01*
X60819266Y36124134D01*
X60852600Y36190800D01*
X60885933Y36224134D01*
X60952600Y36257467D01*
X61019266Y36257467D01*
X61119266Y36224134D01*
X61519266Y35824134D01*
X61519266Y36257467D01*
X61052600Y36857467D02*
X61519266Y36857467D01*
X60785933Y36690800D02*
X61285933Y36524134D01*
X61285933Y36957467D01*
X80056600Y26580134D02*
X79823266Y26913467D01*
X79656600Y26580134D02*
X79656600Y27280134D01*
X79923266Y27280134D01*
X79989933Y27246800D01*
X80023266Y27213467D01*
X80056600Y27146800D01*
X80056600Y27046800D01*
X80023266Y26980134D01*
X79989933Y26946800D01*
X79923266Y26913467D01*
X79656600Y26913467D01*
X80323266Y27213467D02*
X80356600Y27246800D01*
X80423266Y27280134D01*
X80589933Y27280134D01*
X80656600Y27246800D01*
X80689933Y27213467D01*
X80723266Y27146800D01*
X80723266Y27080134D01*
X80689933Y26980134D01*
X80289933Y26580134D01*
X80723266Y26580134D01*
X81056600Y26580134D02*
X81189933Y26580134D01*
X81256600Y26613467D01*
X81289933Y26646800D01*
X81356600Y26746800D01*
X81389933Y26880134D01*
X81389933Y27146800D01*
X81356600Y27213467D01*
X81323266Y27246800D01*
X81256600Y27280134D01*
X81123266Y27280134D01*
X81056600Y27246800D01*
X81023266Y27213467D01*
X80989933Y27146800D01*
X80989933Y26980134D01*
X81023266Y26913467D01*
X81056600Y26880134D01*
X81123266Y26846800D01*
X81256600Y26846800D01*
X81323266Y26880134D01*
X81356600Y26913467D01*
X81389933Y26980134D01*
X74219266Y27015134D02*
X73519266Y27015134D01*
X73519266Y27181800D01*
X73552600Y27281800D01*
X73619266Y27348467D01*
X73685933Y27381800D01*
X73819266Y27415134D01*
X73919266Y27415134D01*
X74052600Y27381800D01*
X74119266Y27348467D01*
X74185933Y27281800D01*
X74219266Y27181800D01*
X74219266Y27015134D01*
X73519266Y27648467D02*
X73519266Y28081800D01*
X73785933Y27848467D01*
X73785933Y27948467D01*
X73819266Y28015134D01*
X73852600Y28048467D01*
X73919266Y28081800D01*
X74085933Y28081800D01*
X74152600Y28048467D01*
X74185933Y28015134D01*
X74219266Y27948467D01*
X74219266Y27748467D01*
X74185933Y27681800D01*
X74152600Y27648467D01*
X74346266Y15077134D02*
X73646266Y15077134D01*
X73646266Y15243800D01*
X73679600Y15343800D01*
X73746266Y15410467D01*
X73812933Y15443800D01*
X73946266Y15477134D01*
X74046266Y15477134D01*
X74179600Y15443800D01*
X74246266Y15410467D01*
X74312933Y15343800D01*
X74346266Y15243800D01*
X74346266Y15077134D01*
X73879600Y16077134D02*
X74346266Y16077134D01*
X73612933Y15910467D02*
X74112933Y15743800D01*
X74112933Y16177134D01*
X74219266Y3139134D02*
X73519266Y3139134D01*
X73519266Y3305800D01*
X73552600Y3405800D01*
X73619266Y3472467D01*
X73685933Y3505800D01*
X73819266Y3539134D01*
X73919266Y3539134D01*
X74052600Y3505800D01*
X74119266Y3472467D01*
X74185933Y3405800D01*
X74219266Y3305800D01*
X74219266Y3139134D01*
X73519266Y4172467D02*
X73519266Y3839134D01*
X73852600Y3805800D01*
X73819266Y3839134D01*
X73785933Y3905800D01*
X73785933Y4072467D01*
X73819266Y4139134D01*
X73852600Y4172467D01*
X73919266Y4205800D01*
X74085933Y4205800D01*
X74152600Y4172467D01*
X74185933Y4139134D01*
X74219266Y4072467D01*
X74219266Y3905800D01*
X74185933Y3839134D01*
X74152600Y3805800D01*
X61320933Y26834134D02*
X61320933Y27534134D01*
X61487600Y27534134D01*
X61587600Y27500800D01*
X61654266Y27434134D01*
X61687600Y27367467D01*
X61720933Y27234134D01*
X61720933Y27134134D01*
X61687600Y27000800D01*
X61654266Y26934134D01*
X61587600Y26867467D01*
X61487600Y26834134D01*
X61320933Y26834134D01*
X62320933Y27534134D02*
X62187600Y27534134D01*
X62120933Y27500800D01*
X62087600Y27467467D01*
X62020933Y27367467D01*
X61987600Y27234134D01*
X61987600Y26967467D01*
X62020933Y26900800D01*
X62054266Y26867467D01*
X62120933Y26834134D01*
X62254266Y26834134D01*
X62320933Y26867467D01*
X62354266Y26900800D01*
X62387600Y26967467D01*
X62387600Y27134134D01*
X62354266Y27200800D01*
X62320933Y27234134D01*
X62254266Y27267467D01*
X62120933Y27267467D01*
X62054266Y27234134D01*
X62020933Y27200800D01*
X61987600Y27134134D01*
X41878933Y9754134D02*
X42345600Y9054134D01*
X42345600Y9754134D02*
X41878933Y9054134D01*
X42512266Y9754134D02*
X42912266Y9754134D01*
X42712266Y9054134D02*
X42712266Y9754134D01*
X43112266Y9254134D02*
X43445600Y9254134D01*
X43045600Y9054134D02*
X43278933Y9754134D01*
X43512266Y9054134D01*
X44078933Y9054134D02*
X43745600Y9054134D01*
X43745600Y9754134D01*
X44678933Y9054134D02*
X44278933Y9054134D01*
X44478933Y9054134D02*
X44478933Y9754134D01*
X44412266Y9654134D01*
X44345600Y9587467D01*
X44278933Y9554134D01*
X7731600Y23986134D02*
X7764933Y23952800D01*
X7798266Y23852800D01*
X7798266Y23786134D01*
X7764933Y23686134D01*
X7698266Y23619467D01*
X7631600Y23586134D01*
X7498266Y23552800D01*
X7398266Y23552800D01*
X7264933Y23586134D01*
X7198266Y23619467D01*
X7131600Y23686134D01*
X7098266Y23786134D01*
X7098266Y23852800D01*
X7131600Y23952800D01*
X7164933Y23986134D01*
X7798266Y24652800D02*
X7798266Y24252800D01*
X7798266Y24452800D02*
X7098266Y24452800D01*
X7198266Y24386134D01*
X7264933Y24319467D01*
X7298266Y24252800D01*
X10017600Y23986134D02*
X10050933Y23952800D01*
X10084266Y23852800D01*
X10084266Y23786134D01*
X10050933Y23686134D01*
X9984266Y23619467D01*
X9917600Y23586134D01*
X9784266Y23552800D01*
X9684266Y23552800D01*
X9550933Y23586134D01*
X9484266Y23619467D01*
X9417600Y23686134D01*
X9384266Y23786134D01*
X9384266Y23852800D01*
X9417600Y23952800D01*
X9450933Y23986134D01*
X9384266Y24219467D02*
X9384266Y24652800D01*
X9650933Y24419467D01*
X9650933Y24519467D01*
X9684266Y24586134D01*
X9717600Y24619467D01*
X9784266Y24652800D01*
X9950933Y24652800D01*
X10017600Y24619467D01*
X10050933Y24586134D01*
X10084266Y24519467D01*
X10084266Y24319467D01*
X10050933Y24252800D01*
X10017600Y24219467D01*
X33131600Y28685134D02*
X33164933Y28651800D01*
X33198266Y28551800D01*
X33198266Y28485134D01*
X33164933Y28385134D01*
X33098266Y28318467D01*
X33031600Y28285134D01*
X32898266Y28251800D01*
X32798266Y28251800D01*
X32664933Y28285134D01*
X32598266Y28318467D01*
X32531600Y28385134D01*
X32498266Y28485134D01*
X32498266Y28551800D01*
X32531600Y28651800D01*
X32564933Y28685134D01*
X32731600Y29285134D02*
X33198266Y29285134D01*
X32464933Y29118467D02*
X32964933Y28951800D01*
X32964933Y29385134D01*
X24241600Y21573134D02*
X24274933Y21539800D01*
X24308266Y21439800D01*
X24308266Y21373134D01*
X24274933Y21273134D01*
X24208266Y21206467D01*
X24141600Y21173134D01*
X24008266Y21139800D01*
X23908266Y21139800D01*
X23774933Y21173134D01*
X23708266Y21206467D01*
X23641600Y21273134D01*
X23608266Y21373134D01*
X23608266Y21439800D01*
X23641600Y21539800D01*
X23674933Y21573134D01*
X23608266Y22206467D02*
X23608266Y21873134D01*
X23941600Y21839800D01*
X23908266Y21873134D01*
X23874933Y21939800D01*
X23874933Y22106467D01*
X23908266Y22173134D01*
X23941600Y22206467D01*
X24008266Y22239800D01*
X24174933Y22239800D01*
X24241600Y22206467D01*
X24274933Y22173134D01*
X24308266Y22106467D01*
X24308266Y21939800D01*
X24274933Y21873134D01*
X24241600Y21839800D01*
X19556933Y20042800D02*
X19523600Y20009467D01*
X19423600Y19976134D01*
X19356933Y19976134D01*
X19256933Y20009467D01*
X19190266Y20076134D01*
X19156933Y20142800D01*
X19123600Y20276134D01*
X19123600Y20376134D01*
X19156933Y20509467D01*
X19190266Y20576134D01*
X19256933Y20642800D01*
X19356933Y20676134D01*
X19423600Y20676134D01*
X19523600Y20642800D01*
X19556933Y20609467D01*
X20156933Y20676134D02*
X20023600Y20676134D01*
X19956933Y20642800D01*
X19923600Y20609467D01*
X19856933Y20509467D01*
X19823600Y20376134D01*
X19823600Y20109467D01*
X19856933Y20042800D01*
X19890266Y20009467D01*
X19956933Y19976134D01*
X20090266Y19976134D01*
X20156933Y20009467D01*
X20190266Y20042800D01*
X20223600Y20109467D01*
X20223600Y20276134D01*
X20190266Y20342800D01*
X20156933Y20376134D01*
X20090266Y20409467D01*
X19956933Y20409467D01*
X19890266Y20376134D01*
X19856933Y20342800D01*
X19823600Y20276134D01*
X34034933Y19280800D02*
X34001600Y19247467D01*
X33901600Y19214134D01*
X33834933Y19214134D01*
X33734933Y19247467D01*
X33668266Y19314134D01*
X33634933Y19380800D01*
X33601600Y19514134D01*
X33601600Y19614134D01*
X33634933Y19747467D01*
X33668266Y19814134D01*
X33734933Y19880800D01*
X33834933Y19914134D01*
X33901600Y19914134D01*
X34001600Y19880800D01*
X34034933Y19847467D01*
X34268266Y19914134D02*
X34734933Y19914134D01*
X34434933Y19214134D01*
X10652600Y30082134D02*
X10685933Y30048800D01*
X10719266Y29948800D01*
X10719266Y29882134D01*
X10685933Y29782134D01*
X10619266Y29715467D01*
X10552600Y29682134D01*
X10419266Y29648800D01*
X10319266Y29648800D01*
X10185933Y29682134D01*
X10119266Y29715467D01*
X10052600Y29782134D01*
X10019266Y29882134D01*
X10019266Y29948800D01*
X10052600Y30048800D01*
X10085933Y30082134D01*
X10319266Y30482134D02*
X10285933Y30415467D01*
X10252600Y30382134D01*
X10185933Y30348800D01*
X10152600Y30348800D01*
X10085933Y30382134D01*
X10052600Y30415467D01*
X10019266Y30482134D01*
X10019266Y30615467D01*
X10052600Y30682134D01*
X10085933Y30715467D01*
X10152600Y30748800D01*
X10185933Y30748800D01*
X10252600Y30715467D01*
X10285933Y30682134D01*
X10319266Y30615467D01*
X10319266Y30482134D01*
X10352600Y30415467D01*
X10385933Y30382134D01*
X10452600Y30348800D01*
X10585933Y30348800D01*
X10652600Y30382134D01*
X10685933Y30415467D01*
X10719266Y30482134D01*
X10719266Y30615467D01*
X10685933Y30682134D01*
X10652600Y30715467D01*
X10585933Y30748800D01*
X10452600Y30748800D01*
X10385933Y30715467D01*
X10352600Y30682134D01*
X10319266Y30615467D01*
X14970600Y30082134D02*
X15003933Y30048800D01*
X15037266Y29948800D01*
X15037266Y29882134D01*
X15003933Y29782134D01*
X14937266Y29715467D01*
X14870600Y29682134D01*
X14737266Y29648800D01*
X14637266Y29648800D01*
X14503933Y29682134D01*
X14437266Y29715467D01*
X14370600Y29782134D01*
X14337266Y29882134D01*
X14337266Y29948800D01*
X14370600Y30048800D01*
X14403933Y30082134D01*
X15037266Y30415467D02*
X15037266Y30548800D01*
X15003933Y30615467D01*
X14970600Y30648800D01*
X14870600Y30715467D01*
X14737266Y30748800D01*
X14470600Y30748800D01*
X14403933Y30715467D01*
X14370600Y30682134D01*
X14337266Y30615467D01*
X14337266Y30482134D01*
X14370600Y30415467D01*
X14403933Y30382134D01*
X14470600Y30348800D01*
X14637266Y30348800D01*
X14703933Y30382134D01*
X14737266Y30415467D01*
X14770600Y30482134D01*
X14770600Y30615467D01*
X14737266Y30682134D01*
X14703933Y30715467D01*
X14637266Y30748800D01*
X31861600Y23652800D02*
X31894933Y23619467D01*
X31928266Y23519467D01*
X31928266Y23452800D01*
X31894933Y23352800D01*
X31828266Y23286134D01*
X31761600Y23252800D01*
X31628266Y23219467D01*
X31528266Y23219467D01*
X31394933Y23252800D01*
X31328266Y23286134D01*
X31261600Y23352800D01*
X31228266Y23452800D01*
X31228266Y23519467D01*
X31261600Y23619467D01*
X31294933Y23652800D01*
X31928266Y24319467D02*
X31928266Y23919467D01*
X31928266Y24119467D02*
X31228266Y24119467D01*
X31328266Y24052800D01*
X31394933Y23986134D01*
X31428266Y23919467D01*
X31928266Y24986134D02*
X31928266Y24586134D01*
X31928266Y24786134D02*
X31228266Y24786134D01*
X31328266Y24719467D01*
X31394933Y24652800D01*
X31428266Y24586134D01*
X30210600Y23525800D02*
X30243933Y23492467D01*
X30277266Y23392467D01*
X30277266Y23325800D01*
X30243933Y23225800D01*
X30177266Y23159134D01*
X30110600Y23125800D01*
X29977266Y23092467D01*
X29877266Y23092467D01*
X29743933Y23125800D01*
X29677266Y23159134D01*
X29610600Y23225800D01*
X29577266Y23325800D01*
X29577266Y23392467D01*
X29610600Y23492467D01*
X29643933Y23525800D01*
X30277266Y24192467D02*
X30277266Y23792467D01*
X30277266Y23992467D02*
X29577266Y23992467D01*
X29677266Y23925800D01*
X29743933Y23859134D01*
X29777266Y23792467D01*
X29643933Y24459134D02*
X29610600Y24492467D01*
X29577266Y24559134D01*
X29577266Y24725800D01*
X29610600Y24792467D01*
X29643933Y24825800D01*
X29710600Y24859134D01*
X29777266Y24859134D01*
X29877266Y24825800D01*
X30277266Y24425800D01*
X30277266Y24859134D01*
X40813600Y16867800D02*
X40780266Y16834467D01*
X40680266Y16801134D01*
X40613600Y16801134D01*
X40513600Y16834467D01*
X40446933Y16901134D01*
X40413600Y16967800D01*
X40380266Y17101134D01*
X40380266Y17201134D01*
X40413600Y17334467D01*
X40446933Y17401134D01*
X40513600Y17467800D01*
X40613600Y17501134D01*
X40680266Y17501134D01*
X40780266Y17467800D01*
X40813600Y17434467D01*
X41480266Y16801134D02*
X41080266Y16801134D01*
X41280266Y16801134D02*
X41280266Y17501134D01*
X41213600Y17401134D01*
X41146933Y17334467D01*
X41080266Y17301134D01*
X42113600Y17501134D02*
X41780266Y17501134D01*
X41746933Y17167800D01*
X41780266Y17201134D01*
X41846933Y17234467D01*
X42013600Y17234467D01*
X42080266Y17201134D01*
X42113600Y17167800D01*
X42146933Y17101134D01*
X42146933Y16934467D01*
X42113600Y16867800D01*
X42080266Y16834467D01*
X42013600Y16801134D01*
X41846933Y16801134D01*
X41780266Y16834467D01*
X41746933Y16867800D01*
X47355600Y21747800D02*
X47388933Y21714467D01*
X47422266Y21614467D01*
X47422266Y21547800D01*
X47388933Y21447800D01*
X47322266Y21381134D01*
X47255600Y21347800D01*
X47122266Y21314467D01*
X47022266Y21314467D01*
X46888933Y21347800D01*
X46822266Y21381134D01*
X46755600Y21447800D01*
X46722266Y21547800D01*
X46722266Y21614467D01*
X46755600Y21714467D01*
X46788933Y21747800D01*
X47422266Y22414467D02*
X47422266Y22014467D01*
X47422266Y22214467D02*
X46722266Y22214467D01*
X46822266Y22147800D01*
X46888933Y22081134D01*
X46922266Y22014467D01*
X47022266Y22814467D02*
X46988933Y22747800D01*
X46955600Y22714467D01*
X46888933Y22681134D01*
X46855600Y22681134D01*
X46788933Y22714467D01*
X46755600Y22747800D01*
X46722266Y22814467D01*
X46722266Y22947800D01*
X46755600Y23014467D01*
X46788933Y23047800D01*
X46855600Y23081134D01*
X46888933Y23081134D01*
X46955600Y23047800D01*
X46988933Y23014467D01*
X47022266Y22947800D01*
X47022266Y22814467D01*
X47055600Y22747800D01*
X47088933Y22714467D01*
X47155600Y22681134D01*
X47288933Y22681134D01*
X47355600Y22714467D01*
X47388933Y22747800D01*
X47422266Y22814467D01*
X47422266Y22947800D01*
X47388933Y23014467D01*
X47355600Y23047800D01*
X47288933Y23081134D01*
X47155600Y23081134D01*
X47088933Y23047800D01*
X47055600Y23014467D01*
X47022266Y22947800D01*
X53578600Y31145800D02*
X53611933Y31112467D01*
X53645266Y31012467D01*
X53645266Y30945800D01*
X53611933Y30845800D01*
X53545266Y30779134D01*
X53478600Y30745800D01*
X53345266Y30712467D01*
X53245266Y30712467D01*
X53111933Y30745800D01*
X53045266Y30779134D01*
X52978600Y30845800D01*
X52945266Y30945800D01*
X52945266Y31012467D01*
X52978600Y31112467D01*
X53011933Y31145800D01*
X53645266Y31812467D02*
X53645266Y31412467D01*
X53645266Y31612467D02*
X52945266Y31612467D01*
X53045266Y31545800D01*
X53111933Y31479134D01*
X53145266Y31412467D01*
X53645266Y32145800D02*
X53645266Y32279134D01*
X53611933Y32345800D01*
X53578600Y32379134D01*
X53478600Y32445800D01*
X53345266Y32479134D01*
X53078600Y32479134D01*
X53011933Y32445800D01*
X52978600Y32412467D01*
X52945266Y32345800D01*
X52945266Y32212467D01*
X52978600Y32145800D01*
X53011933Y32112467D01*
X53078600Y32079134D01*
X53245266Y32079134D01*
X53311933Y32112467D01*
X53345266Y32145800D01*
X53378600Y32212467D01*
X53378600Y32345800D01*
X53345266Y32412467D01*
X53311933Y32445800D01*
X53245266Y32479134D01*
X68843266Y34519134D02*
X68843266Y34019134D01*
X68809933Y33919134D01*
X68743266Y33852467D01*
X68643266Y33819134D01*
X68576600Y33819134D01*
X69109933Y34519134D02*
X69543266Y34519134D01*
X69309933Y34252467D01*
X69409933Y34252467D01*
X69476600Y34219134D01*
X69509933Y34185800D01*
X69543266Y34119134D01*
X69543266Y33952467D01*
X69509933Y33885800D01*
X69476600Y33852467D01*
X69409933Y33819134D01*
X69209933Y33819134D01*
X69143266Y33852467D01*
X69109933Y33885800D01*
D11*
X2459066Y39143734D02*
X2459066Y38643734D01*
X2425733Y38543734D01*
X2359066Y38477067D01*
X2259066Y38443734D01*
X2192400Y38443734D01*
X3159066Y38443734D02*
X2759066Y38443734D01*
X2959066Y38443734D02*
X2959066Y39143734D01*
X2892400Y39043734D01*
X2825733Y38977067D01*
X2759066Y38943734D01*
D15*
X8874600Y23986134D02*
X8907933Y23952800D01*
X8941266Y23852800D01*
X8941266Y23786134D01*
X8907933Y23686134D01*
X8841266Y23619467D01*
X8774600Y23586134D01*
X8641266Y23552800D01*
X8541266Y23552800D01*
X8407933Y23586134D01*
X8341266Y23619467D01*
X8274600Y23686134D01*
X8241266Y23786134D01*
X8241266Y23852800D01*
X8274600Y23952800D01*
X8307933Y23986134D01*
X8307933Y24252800D02*
X8274600Y24286134D01*
X8241266Y24352800D01*
X8241266Y24519467D01*
X8274600Y24586134D01*
X8307933Y24619467D01*
X8374600Y24652800D01*
X8441266Y24652800D01*
X8541266Y24619467D01*
X8941266Y24219467D01*
X8941266Y24652800D01*
X11668600Y30002800D02*
X11701933Y29969467D01*
X11735266Y29869467D01*
X11735266Y29802800D01*
X11701933Y29702800D01*
X11635266Y29636134D01*
X11568600Y29602800D01*
X11435266Y29569467D01*
X11335266Y29569467D01*
X11201933Y29602800D01*
X11135266Y29636134D01*
X11068600Y29702800D01*
X11035266Y29802800D01*
X11035266Y29869467D01*
X11068600Y29969467D01*
X11101933Y30002800D01*
X11735266Y30669467D02*
X11735266Y30269467D01*
X11735266Y30469467D02*
X11035266Y30469467D01*
X11135266Y30402800D01*
X11201933Y30336134D01*
X11235266Y30269467D01*
X11035266Y31102800D02*
X11035266Y31169467D01*
X11068600Y31236134D01*
X11101933Y31269467D01*
X11168600Y31302800D01*
X11301933Y31336134D01*
X11468600Y31336134D01*
X11601933Y31302800D01*
X11668600Y31269467D01*
X11701933Y31236134D01*
X11735266Y31169467D01*
X11735266Y31102800D01*
X11701933Y31036134D01*
X11668600Y31002800D01*
X11601933Y30969467D01*
X11468600Y30936134D01*
X11301933Y30936134D01*
X11168600Y30969467D01*
X11101933Y31002800D01*
X11068600Y31036134D01*
X11035266Y31102800D01*
X47071250Y10421758D02*
X47104583Y10388425D01*
X47137916Y10288425D01*
X47137916Y10221758D01*
X47104583Y10121758D01*
X47037916Y10055092D01*
X46971250Y10021758D01*
X46837916Y9988425D01*
X46737916Y9988425D01*
X46604583Y10021758D01*
X46537916Y10055092D01*
X46471250Y10121758D01*
X46437916Y10221758D01*
X46437916Y10288425D01*
X46471250Y10388425D01*
X46504583Y10421758D01*
X47137916Y11088425D02*
X47137916Y10688425D01*
X47137916Y10888425D02*
X46437916Y10888425D01*
X46537916Y10821758D01*
X46604583Y10755092D01*
X46637916Y10688425D01*
X46437916Y11321758D02*
X46437916Y11755092D01*
X46704583Y11521758D01*
X46704583Y11621758D01*
X46737916Y11688425D01*
X46771250Y11721758D01*
X46837916Y11755092D01*
X47004583Y11755092D01*
X47071250Y11721758D01*
X47104583Y11688425D01*
X47137916Y11621758D01*
X47137916Y11421758D01*
X47104583Y11355092D01*
X47071250Y11321758D01*
X47071250Y12509258D02*
X47104583Y12475925D01*
X47137916Y12375925D01*
X47137916Y12309258D01*
X47104583Y12209258D01*
X47037916Y12142592D01*
X46971250Y12109258D01*
X46837916Y12075925D01*
X46737916Y12075925D01*
X46604583Y12109258D01*
X46537916Y12142592D01*
X46471250Y12209258D01*
X46437916Y12309258D01*
X46437916Y12375925D01*
X46471250Y12475925D01*
X46504583Y12509258D01*
X47137916Y13175925D02*
X47137916Y12775925D01*
X47137916Y12975925D02*
X46437916Y12975925D01*
X46537916Y12909258D01*
X46604583Y12842592D01*
X46637916Y12775925D01*
X46671250Y13775925D02*
X47137916Y13775925D01*
X46404583Y13609258D02*
X46904583Y13442592D01*
X46904583Y13875925D01*
X53132600Y17502800D02*
X53099266Y17469467D01*
X52999266Y17436134D01*
X52932600Y17436134D01*
X52832600Y17469467D01*
X52765933Y17536134D01*
X52732600Y17602800D01*
X52699266Y17736134D01*
X52699266Y17836134D01*
X52732600Y17969467D01*
X52765933Y18036134D01*
X52832600Y18102800D01*
X52932600Y18136134D01*
X52999266Y18136134D01*
X53099266Y18102800D01*
X53132600Y18069467D01*
X53799266Y17436134D02*
X53399266Y17436134D01*
X53599266Y17436134D02*
X53599266Y18136134D01*
X53532600Y18036134D01*
X53465933Y17969467D01*
X53399266Y17936134D01*
X54399266Y18136134D02*
X54265933Y18136134D01*
X54199266Y18102800D01*
X54165933Y18069467D01*
X54099266Y17969467D01*
X54065933Y17836134D01*
X54065933Y17569467D01*
X54099266Y17502800D01*
X54132600Y17469467D01*
X54199266Y17436134D01*
X54332600Y17436134D01*
X54399266Y17469467D01*
X54432600Y17502800D01*
X54465933Y17569467D01*
X54465933Y17736134D01*
X54432600Y17802800D01*
X54399266Y17836134D01*
X54332600Y17869467D01*
X54199266Y17869467D01*
X54132600Y17836134D01*
X54099266Y17802800D01*
X54065933Y17736134D01*
X53005600Y16486800D02*
X52972266Y16453467D01*
X52872266Y16420134D01*
X52805600Y16420134D01*
X52705600Y16453467D01*
X52638933Y16520134D01*
X52605600Y16586800D01*
X52572266Y16720134D01*
X52572266Y16820134D01*
X52605600Y16953467D01*
X52638933Y17020134D01*
X52705600Y17086800D01*
X52805600Y17120134D01*
X52872266Y17120134D01*
X52972266Y17086800D01*
X53005600Y17053467D01*
X53672266Y16420134D02*
X53272266Y16420134D01*
X53472266Y16420134D02*
X53472266Y17120134D01*
X53405600Y17020134D01*
X53338933Y16953467D01*
X53272266Y16920134D01*
X53905600Y17120134D02*
X54372266Y17120134D01*
X54072266Y16420134D01*
X57515600Y21112800D02*
X57548933Y21079467D01*
X57582266Y20979467D01*
X57582266Y20912800D01*
X57548933Y20812800D01*
X57482266Y20746134D01*
X57415600Y20712800D01*
X57282266Y20679467D01*
X57182266Y20679467D01*
X57048933Y20712800D01*
X56982266Y20746134D01*
X56915600Y20812800D01*
X56882266Y20912800D01*
X56882266Y20979467D01*
X56915600Y21079467D01*
X56948933Y21112800D01*
X56948933Y21379467D02*
X56915600Y21412800D01*
X56882266Y21479467D01*
X56882266Y21646134D01*
X56915600Y21712800D01*
X56948933Y21746134D01*
X57015600Y21779467D01*
X57082266Y21779467D01*
X57182266Y21746134D01*
X57582266Y21346134D01*
X57582266Y21779467D01*
X56882266Y22212800D02*
X56882266Y22279467D01*
X56915600Y22346134D01*
X56948933Y22379467D01*
X57015600Y22412800D01*
X57148933Y22446134D01*
X57315600Y22446134D01*
X57448933Y22412800D01*
X57515600Y22379467D01*
X57548933Y22346134D01*
X57582266Y22279467D01*
X57582266Y22212800D01*
X57548933Y22146134D01*
X57515600Y22112800D01*
X57448933Y22079467D01*
X57315600Y22046134D01*
X57148933Y22046134D01*
X57015600Y22079467D01*
X56948933Y22112800D01*
X56915600Y22146134D01*
X56882266Y22212800D01*
X59674600Y21112800D02*
X59707933Y21079467D01*
X59741266Y20979467D01*
X59741266Y20912800D01*
X59707933Y20812800D01*
X59641266Y20746134D01*
X59574600Y20712800D01*
X59441266Y20679467D01*
X59341266Y20679467D01*
X59207933Y20712800D01*
X59141266Y20746134D01*
X59074600Y20812800D01*
X59041266Y20912800D01*
X59041266Y20979467D01*
X59074600Y21079467D01*
X59107933Y21112800D01*
X59107933Y21379467D02*
X59074600Y21412800D01*
X59041266Y21479467D01*
X59041266Y21646134D01*
X59074600Y21712800D01*
X59107933Y21746134D01*
X59174600Y21779467D01*
X59241266Y21779467D01*
X59341266Y21746134D01*
X59741266Y21346134D01*
X59741266Y21779467D01*
X59741266Y22446134D02*
X59741266Y22046134D01*
X59741266Y22246134D02*
X59041266Y22246134D01*
X59141266Y22179467D01*
X59207933Y22112800D01*
X59241266Y22046134D01*
X30255266Y19056134D02*
X29555266Y19056134D01*
X29555266Y19222800D01*
X29588600Y19322800D01*
X29655266Y19389467D01*
X29721933Y19422800D01*
X29855266Y19456134D01*
X29955266Y19456134D01*
X30088600Y19422800D01*
X30155266Y19389467D01*
X30221933Y19322800D01*
X30255266Y19222800D01*
X30255266Y19056134D01*
X29621933Y19722800D02*
X29588600Y19756134D01*
X29555266Y19822800D01*
X29555266Y19989467D01*
X29588600Y20056134D01*
X29621933Y20089467D01*
X29688600Y20122800D01*
X29755266Y20122800D01*
X29855266Y20089467D01*
X30255266Y19689467D01*
X30255266Y20122800D01*
X3565266Y15850134D02*
X3565266Y15350134D01*
X3531933Y15250134D01*
X3465266Y15183467D01*
X3365266Y15150134D01*
X3298600Y15150134D01*
X3865266Y15783467D02*
X3898600Y15816800D01*
X3965266Y15850134D01*
X4131933Y15850134D01*
X4198600Y15816800D01*
X4231933Y15783467D01*
X4265266Y15716800D01*
X4265266Y15650134D01*
X4231933Y15550134D01*
X3831933Y15150134D01*
X4265266Y15150134D01*
X66938266Y21184134D02*
X66938266Y20684134D01*
X66904933Y20584134D01*
X66838266Y20517467D01*
X66738266Y20484134D01*
X66671600Y20484134D01*
X67571600Y20950800D02*
X67571600Y20484134D01*
X67404933Y21217467D02*
X67238266Y20717467D01*
X67671600Y20717467D01*
X14868266Y12548134D02*
X14868266Y12048134D01*
X14834933Y11948134D01*
X14768266Y11881467D01*
X14668266Y11848134D01*
X14601600Y11848134D01*
X15534933Y12548134D02*
X15201600Y12548134D01*
X15168266Y12214800D01*
X15201600Y12248134D01*
X15268266Y12281467D01*
X15434933Y12281467D01*
X15501600Y12248134D01*
X15534933Y12214800D01*
X15568266Y12148134D01*
X15568266Y11981467D01*
X15534933Y11914800D01*
X15501600Y11881467D01*
X15434933Y11848134D01*
X15268266Y11848134D01*
X15201600Y11881467D01*
X15168266Y11914800D01*
X48131933Y30771134D02*
X47798600Y30771134D01*
X47798600Y31471134D01*
X48731933Y30771134D02*
X48331933Y30771134D01*
X48531933Y30771134D02*
X48531933Y31471134D01*
X48465266Y31371134D01*
X48398600Y31304467D01*
X48331933Y31271134D01*
X16817450Y35988946D02*
X16750783Y36022279D01*
X16684117Y36088946D01*
X16584117Y36188946D01*
X16517450Y36222279D01*
X16450783Y36222279D01*
X16484117Y36055613D02*
X16417450Y36088946D01*
X16350783Y36155613D01*
X16317450Y36288946D01*
X16317450Y36522279D01*
X16350783Y36655613D01*
X16417450Y36722279D01*
X16484117Y36755613D01*
X16617450Y36755613D01*
X16684117Y36722279D01*
X16750783Y36655613D01*
X16784117Y36522279D01*
X16784117Y36288946D01*
X16750783Y36155613D01*
X16684117Y36088946D01*
X16617450Y36055613D01*
X16484117Y36055613D01*
X17450783Y36055613D02*
X17050783Y36055613D01*
X17250783Y36055613D02*
X17250783Y36755613D01*
X17184117Y36655613D01*
X17117450Y36588946D01*
X17050783Y36555613D01*
X10589933Y35911467D02*
X10523266Y35944800D01*
X10456600Y36011467D01*
X10356600Y36111467D01*
X10289933Y36144800D01*
X10223266Y36144800D01*
X10256600Y35978134D02*
X10189933Y36011467D01*
X10123266Y36078134D01*
X10089933Y36211467D01*
X10089933Y36444800D01*
X10123266Y36578134D01*
X10189933Y36644800D01*
X10256600Y36678134D01*
X10389933Y36678134D01*
X10456600Y36644800D01*
X10523266Y36578134D01*
X10556600Y36444800D01*
X10556600Y36211467D01*
X10523266Y36078134D01*
X10456600Y36011467D01*
X10389933Y35978134D01*
X10256600Y35978134D01*
X10823266Y36611467D02*
X10856600Y36644800D01*
X10923266Y36678134D01*
X11089933Y36678134D01*
X11156600Y36644800D01*
X11189933Y36611467D01*
X11223266Y36544800D01*
X11223266Y36478134D01*
X11189933Y36378134D01*
X10789933Y35978134D01*
X11223266Y35978134D01*
X27303933Y28485134D02*
X27070600Y28818467D01*
X26903933Y28485134D02*
X26903933Y29185134D01*
X27170600Y29185134D01*
X27237266Y29151800D01*
X27270600Y29118467D01*
X27303933Y29051800D01*
X27303933Y28951800D01*
X27270600Y28885134D01*
X27237266Y28851800D01*
X27170600Y28818467D01*
X26903933Y28818467D01*
X27970600Y28485134D02*
X27570600Y28485134D01*
X27770600Y28485134D02*
X27770600Y29185134D01*
X27703933Y29085134D01*
X27637266Y29018467D01*
X27570600Y28985134D01*
X26541933Y27469134D02*
X26308600Y27802467D01*
X26141933Y27469134D02*
X26141933Y28169134D01*
X26408600Y28169134D01*
X26475266Y28135800D01*
X26508600Y28102467D01*
X26541933Y28035800D01*
X26541933Y27935800D01*
X26508600Y27869134D01*
X26475266Y27835800D01*
X26408600Y27802467D01*
X26141933Y27802467D01*
X26808600Y28102467D02*
X26841933Y28135800D01*
X26908600Y28169134D01*
X27075266Y28169134D01*
X27141933Y28135800D01*
X27175266Y28102467D01*
X27208600Y28035800D01*
X27208600Y27969134D01*
X27175266Y27869134D01*
X26775266Y27469134D01*
X27208600Y27469134D01*
X19990266Y36305134D02*
X19656933Y36071800D01*
X19990266Y35905134D02*
X19290266Y35905134D01*
X19290266Y36171800D01*
X19323600Y36238467D01*
X19356933Y36271800D01*
X19423600Y36305134D01*
X19523600Y36305134D01*
X19590266Y36271800D01*
X19623600Y36238467D01*
X19656933Y36171800D01*
X19656933Y35905134D01*
X19290266Y36538467D02*
X19290266Y36971800D01*
X19556933Y36738467D01*
X19556933Y36838467D01*
X19590266Y36905134D01*
X19623600Y36938467D01*
X19690266Y36971800D01*
X19856933Y36971800D01*
X19923600Y36938467D01*
X19956933Y36905134D01*
X19990266Y36838467D01*
X19990266Y36638467D01*
X19956933Y36571800D01*
X19923600Y36538467D01*
X26541933Y30644134D02*
X26308600Y30977467D01*
X26141933Y30644134D02*
X26141933Y31344134D01*
X26408600Y31344134D01*
X26475266Y31310800D01*
X26508600Y31277467D01*
X26541933Y31210800D01*
X26541933Y31110800D01*
X26508600Y31044134D01*
X26475266Y31010800D01*
X26408600Y30977467D01*
X26141933Y30977467D01*
X27141933Y31110800D02*
X27141933Y30644134D01*
X26975266Y31377467D02*
X26808600Y30877467D01*
X27241933Y30877467D01*
X26541933Y25945134D02*
X26308600Y26278467D01*
X26141933Y25945134D02*
X26141933Y26645134D01*
X26408600Y26645134D01*
X26475266Y26611800D01*
X26508600Y26578467D01*
X26541933Y26511800D01*
X26541933Y26411800D01*
X26508600Y26345134D01*
X26475266Y26311800D01*
X26408600Y26278467D01*
X26141933Y26278467D01*
X27175266Y26645134D02*
X26841933Y26645134D01*
X26808600Y26311800D01*
X26841933Y26345134D01*
X26908600Y26378467D01*
X27075266Y26378467D01*
X27141933Y26345134D01*
X27175266Y26311800D01*
X27208600Y26245134D01*
X27208600Y26078467D01*
X27175266Y26011800D01*
X27141933Y25978467D01*
X27075266Y25945134D01*
X26908600Y25945134D01*
X26841933Y25978467D01*
X26808600Y26011800D01*
X21641266Y34654134D02*
X21307933Y34420800D01*
X21641266Y34254134D02*
X20941266Y34254134D01*
X20941266Y34520800D01*
X20974600Y34587467D01*
X21007933Y34620800D01*
X21074600Y34654134D01*
X21174600Y34654134D01*
X21241266Y34620800D01*
X21274600Y34587467D01*
X21307933Y34520800D01*
X21307933Y34254134D01*
X20941266Y35254134D02*
X20941266Y35120800D01*
X20974600Y35054134D01*
X21007933Y35020800D01*
X21107933Y34954134D01*
X21241266Y34920800D01*
X21507933Y34920800D01*
X21574600Y34954134D01*
X21607933Y34987467D01*
X21641266Y35054134D01*
X21641266Y35187467D01*
X21607933Y35254134D01*
X21574600Y35287467D01*
X21507933Y35320800D01*
X21341266Y35320800D01*
X21274600Y35287467D01*
X21241266Y35254134D01*
X21207933Y35187467D01*
X21207933Y35054134D01*
X21241266Y34987467D01*
X21274600Y34954134D01*
X21341266Y34920800D01*
X21133266Y28456134D02*
X20799933Y28222800D01*
X21133266Y28056134D02*
X20433266Y28056134D01*
X20433266Y28322800D01*
X20466600Y28389467D01*
X20499933Y28422800D01*
X20566600Y28456134D01*
X20666600Y28456134D01*
X20733266Y28422800D01*
X20766600Y28389467D01*
X20799933Y28322800D01*
X20799933Y28056134D01*
X20433266Y28689467D02*
X20433266Y29156134D01*
X21133266Y28856134D01*
X14529266Y36432134D02*
X14195933Y36198800D01*
X14529266Y36032134D02*
X13829266Y36032134D01*
X13829266Y36298800D01*
X13862600Y36365467D01*
X13895933Y36398800D01*
X13962600Y36432134D01*
X14062600Y36432134D01*
X14129266Y36398800D01*
X14162600Y36365467D01*
X14195933Y36298800D01*
X14195933Y36032134D01*
X14129266Y36832134D02*
X14095933Y36765467D01*
X14062600Y36732134D01*
X13995933Y36698800D01*
X13962600Y36698800D01*
X13895933Y36732134D01*
X13862600Y36765467D01*
X13829266Y36832134D01*
X13829266Y36965467D01*
X13862600Y37032134D01*
X13895933Y37065467D01*
X13962600Y37098800D01*
X13995933Y37098800D01*
X14062600Y37065467D01*
X14095933Y37032134D01*
X14129266Y36965467D01*
X14129266Y36832134D01*
X14162600Y36765467D01*
X14195933Y36732134D01*
X14262600Y36698800D01*
X14395933Y36698800D01*
X14462600Y36732134D01*
X14495933Y36765467D01*
X14529266Y36832134D01*
X14529266Y36965467D01*
X14495933Y37032134D01*
X14462600Y37065467D01*
X14395933Y37098800D01*
X14262600Y37098800D01*
X14195933Y37065467D01*
X14162600Y37032134D01*
X14129266Y36965467D01*
X16815266Y29574134D02*
X16481933Y29340800D01*
X16815266Y29174134D02*
X16115266Y29174134D01*
X16115266Y29440800D01*
X16148600Y29507467D01*
X16181933Y29540800D01*
X16248600Y29574134D01*
X16348600Y29574134D01*
X16415266Y29540800D01*
X16448600Y29507467D01*
X16481933Y29440800D01*
X16481933Y29174134D01*
X16815266Y29907467D02*
X16815266Y30040800D01*
X16781933Y30107467D01*
X16748600Y30140800D01*
X16648600Y30207467D01*
X16515266Y30240800D01*
X16248600Y30240800D01*
X16181933Y30207467D01*
X16148600Y30174134D01*
X16115266Y30107467D01*
X16115266Y29974134D01*
X16148600Y29907467D01*
X16181933Y29874134D01*
X16248600Y29840800D01*
X16415266Y29840800D01*
X16481933Y29874134D01*
X16515266Y29907467D01*
X16548600Y29974134D01*
X16548600Y30107467D01*
X16515266Y30174134D01*
X16481933Y30207467D01*
X16415266Y30240800D01*
X16434266Y21947279D02*
X16100933Y21713946D01*
X16434266Y21547279D02*
X15734266Y21547279D01*
X15734266Y21813946D01*
X15767600Y21880613D01*
X15800933Y21913946D01*
X15867600Y21947279D01*
X15967600Y21947279D01*
X16034266Y21913946D01*
X16067600Y21880613D01*
X16100933Y21813946D01*
X16100933Y21547279D01*
X16434266Y22613946D02*
X16434266Y22213946D01*
X16434266Y22413946D02*
X15734266Y22413946D01*
X15834266Y22347279D01*
X15900933Y22280613D01*
X15934266Y22213946D01*
X15734266Y23047279D02*
X15734266Y23113946D01*
X15767600Y23180613D01*
X15800933Y23213946D01*
X15867600Y23247279D01*
X16000933Y23280613D01*
X16167600Y23280613D01*
X16300933Y23247279D01*
X16367600Y23213946D01*
X16400933Y23180613D01*
X16434266Y23113946D01*
X16434266Y23047279D01*
X16400933Y22980613D01*
X16367600Y22947279D01*
X16300933Y22913946D01*
X16167600Y22880613D01*
X16000933Y22880613D01*
X15867600Y22913946D01*
X15800933Y22947279D01*
X15767600Y22980613D01*
X15734266Y23047279D01*
X33701600Y20484134D02*
X33468266Y20817467D01*
X33301600Y20484134D02*
X33301600Y21184134D01*
X33568266Y21184134D01*
X33634933Y21150800D01*
X33668266Y21117467D01*
X33701600Y21050800D01*
X33701600Y20950800D01*
X33668266Y20884134D01*
X33634933Y20850800D01*
X33568266Y20817467D01*
X33301600Y20817467D01*
X34368266Y20484134D02*
X33968266Y20484134D01*
X34168266Y20484134D02*
X34168266Y21184134D01*
X34101600Y21084134D01*
X34034933Y21017467D01*
X33968266Y20984134D01*
X35034933Y20484134D02*
X34634933Y20484134D01*
X34834933Y20484134D02*
X34834933Y21184134D01*
X34768266Y21084134D01*
X34701600Y21017467D01*
X34634933Y20984134D01*
X22657266Y24414800D02*
X22323933Y24181467D01*
X22657266Y24014800D02*
X21957266Y24014800D01*
X21957266Y24281467D01*
X21990600Y24348134D01*
X22023933Y24381467D01*
X22090600Y24414800D01*
X22190600Y24414800D01*
X22257266Y24381467D01*
X22290600Y24348134D01*
X22323933Y24281467D01*
X22323933Y24014800D01*
X22657266Y25081467D02*
X22657266Y24681467D01*
X22657266Y24881467D02*
X21957266Y24881467D01*
X22057266Y24814800D01*
X22123933Y24748134D01*
X22157266Y24681467D01*
X22023933Y25348134D02*
X21990600Y25381467D01*
X21957266Y25448134D01*
X21957266Y25614800D01*
X21990600Y25681467D01*
X22023933Y25714800D01*
X22090600Y25748134D01*
X22157266Y25748134D01*
X22257266Y25714800D01*
X22657266Y25314800D01*
X22657266Y25748134D01*
X34082600Y33311134D02*
X33849266Y33644467D01*
X33682600Y33311134D02*
X33682600Y34011134D01*
X33949266Y34011134D01*
X34015933Y33977800D01*
X34049266Y33944467D01*
X34082600Y33877800D01*
X34082600Y33777800D01*
X34049266Y33711134D01*
X34015933Y33677800D01*
X33949266Y33644467D01*
X33682600Y33644467D01*
X34749266Y33311134D02*
X34349266Y33311134D01*
X34549266Y33311134D02*
X34549266Y34011134D01*
X34482600Y33911134D01*
X34415933Y33844467D01*
X34349266Y33811134D01*
X34982600Y34011134D02*
X35415933Y34011134D01*
X35182600Y33744467D01*
X35282600Y33744467D01*
X35349266Y33711134D01*
X35382600Y33677800D01*
X35415933Y33611134D01*
X35415933Y33444467D01*
X35382600Y33377800D01*
X35349266Y33344467D01*
X35282600Y33311134D01*
X35082600Y33311134D01*
X35015933Y33344467D01*
X34982600Y33377800D01*
X41326266Y27716800D02*
X40992933Y27483467D01*
X41326266Y27316800D02*
X40626266Y27316800D01*
X40626266Y27583467D01*
X40659600Y27650134D01*
X40692933Y27683467D01*
X40759600Y27716800D01*
X40859600Y27716800D01*
X40926266Y27683467D01*
X40959600Y27650134D01*
X40992933Y27583467D01*
X40992933Y27316800D01*
X41326266Y28383467D02*
X41326266Y27983467D01*
X41326266Y28183467D02*
X40626266Y28183467D01*
X40726266Y28116800D01*
X40792933Y28050134D01*
X40826266Y27983467D01*
X40859600Y28983467D02*
X41326266Y28983467D01*
X40592933Y28816800D02*
X41092933Y28650134D01*
X41092933Y29083467D01*
X41067600Y24802134D02*
X40834266Y25135467D01*
X40667600Y24802134D02*
X40667600Y25502134D01*
X40934266Y25502134D01*
X41000933Y25468800D01*
X41034266Y25435467D01*
X41067600Y25368800D01*
X41067600Y25268800D01*
X41034266Y25202134D01*
X41000933Y25168800D01*
X40934266Y25135467D01*
X40667600Y25135467D01*
X41734266Y24802134D02*
X41334266Y24802134D01*
X41534266Y24802134D02*
X41534266Y25502134D01*
X41467600Y25402134D01*
X41400933Y25335467D01*
X41334266Y25302134D01*
X42367600Y25502134D02*
X42034266Y25502134D01*
X42000933Y25168800D01*
X42034266Y25202134D01*
X42100933Y25235467D01*
X42267600Y25235467D01*
X42334266Y25202134D01*
X42367600Y25168800D01*
X42400933Y25102134D01*
X42400933Y24935467D01*
X42367600Y24868800D01*
X42334266Y24835467D01*
X42267600Y24802134D01*
X42100933Y24802134D01*
X42034266Y24835467D01*
X42000933Y24868800D01*
X35733600Y23278134D02*
X35500266Y23611467D01*
X35333600Y23278134D02*
X35333600Y23978134D01*
X35600266Y23978134D01*
X35666933Y23944800D01*
X35700266Y23911467D01*
X35733600Y23844800D01*
X35733600Y23744800D01*
X35700266Y23678134D01*
X35666933Y23644800D01*
X35600266Y23611467D01*
X35333600Y23611467D01*
X36400266Y23278134D02*
X36000266Y23278134D01*
X36200266Y23278134D02*
X36200266Y23978134D01*
X36133600Y23878134D01*
X36066933Y23811467D01*
X36000266Y23778134D01*
X37000266Y23978134D02*
X36866933Y23978134D01*
X36800266Y23944800D01*
X36766933Y23911467D01*
X36700266Y23811467D01*
X36666933Y23678134D01*
X36666933Y23411467D01*
X36700266Y23344800D01*
X36733600Y23311467D01*
X36800266Y23278134D01*
X36933600Y23278134D01*
X37000266Y23311467D01*
X37033600Y23344800D01*
X37066933Y23411467D01*
X37066933Y23578134D01*
X37033600Y23644800D01*
X37000266Y23678134D01*
X36933600Y23711467D01*
X36800266Y23711467D01*
X36733600Y23678134D01*
X36700266Y23644800D01*
X36666933Y23578134D01*
X6528266Y33685800D02*
X6194933Y33452467D01*
X6528266Y33285800D02*
X5828266Y33285800D01*
X5828266Y33552467D01*
X5861600Y33619134D01*
X5894933Y33652467D01*
X5961600Y33685800D01*
X6061600Y33685800D01*
X6128266Y33652467D01*
X6161600Y33619134D01*
X6194933Y33552467D01*
X6194933Y33285800D01*
X6528266Y34352467D02*
X6528266Y33952467D01*
X6528266Y34152467D02*
X5828266Y34152467D01*
X5928266Y34085800D01*
X5994933Y34019134D01*
X6028266Y33952467D01*
X5828266Y34585800D02*
X5828266Y35052467D01*
X6528266Y34752467D01*
X26955266Y15922800D02*
X26621933Y15689467D01*
X26955266Y15522800D02*
X26255266Y15522800D01*
X26255266Y15789467D01*
X26288600Y15856134D01*
X26321933Y15889467D01*
X26388600Y15922800D01*
X26488600Y15922800D01*
X26555266Y15889467D01*
X26588600Y15856134D01*
X26621933Y15789467D01*
X26621933Y15522800D01*
X26955266Y16589467D02*
X26955266Y16189467D01*
X26955266Y16389467D02*
X26255266Y16389467D01*
X26355266Y16322800D01*
X26421933Y16256134D01*
X26455266Y16189467D01*
X26555266Y16989467D02*
X26521933Y16922800D01*
X26488600Y16889467D01*
X26421933Y16856134D01*
X26388600Y16856134D01*
X26321933Y16889467D01*
X26288600Y16922800D01*
X26255266Y16989467D01*
X26255266Y17122800D01*
X26288600Y17189467D01*
X26321933Y17222800D01*
X26388600Y17256134D01*
X26421933Y17256134D01*
X26488600Y17222800D01*
X26521933Y17189467D01*
X26555266Y17122800D01*
X26555266Y16989467D01*
X26588600Y16922800D01*
X26621933Y16889467D01*
X26688600Y16856134D01*
X26821933Y16856134D01*
X26888600Y16889467D01*
X26921933Y16922800D01*
X26955266Y16989467D01*
X26955266Y17122800D01*
X26921933Y17189467D01*
X26888600Y17222800D01*
X26821933Y17256134D01*
X26688600Y17256134D01*
X26621933Y17222800D01*
X26588600Y17189467D01*
X26555266Y17122800D01*
X14270600Y10070134D02*
X14037266Y10403467D01*
X13870600Y10070134D02*
X13870600Y10770134D01*
X14137266Y10770134D01*
X14203933Y10736800D01*
X14237266Y10703467D01*
X14270600Y10636800D01*
X14270600Y10536800D01*
X14237266Y10470134D01*
X14203933Y10436800D01*
X14137266Y10403467D01*
X13870600Y10403467D01*
X14937266Y10070134D02*
X14537266Y10070134D01*
X14737266Y10070134D02*
X14737266Y10770134D01*
X14670600Y10670134D01*
X14603933Y10603467D01*
X14537266Y10570134D01*
X15270600Y10070134D02*
X15403933Y10070134D01*
X15470600Y10103467D01*
X15503933Y10136800D01*
X15570600Y10236800D01*
X15603933Y10370134D01*
X15603933Y10636800D01*
X15570600Y10703467D01*
X15537266Y10736800D01*
X15470600Y10770134D01*
X15337266Y10770134D01*
X15270600Y10736800D01*
X15237266Y10703467D01*
X15203933Y10636800D01*
X15203933Y10470134D01*
X15237266Y10403467D01*
X15270600Y10370134D01*
X15337266Y10336800D01*
X15470600Y10336800D01*
X15537266Y10370134D01*
X15570600Y10403467D01*
X15603933Y10470134D01*
X31669600Y19341134D02*
X31436266Y19674467D01*
X31269600Y19341134D02*
X31269600Y20041134D01*
X31536266Y20041134D01*
X31602933Y20007800D01*
X31636266Y19974467D01*
X31669600Y19907800D01*
X31669600Y19807800D01*
X31636266Y19741134D01*
X31602933Y19707800D01*
X31536266Y19674467D01*
X31269600Y19674467D01*
X31936266Y19974467D02*
X31969600Y20007800D01*
X32036266Y20041134D01*
X32202933Y20041134D01*
X32269600Y20007800D01*
X32302933Y19974467D01*
X32336266Y19907800D01*
X32336266Y19841134D01*
X32302933Y19741134D01*
X31902933Y19341134D01*
X32336266Y19341134D01*
X32769600Y20041134D02*
X32836266Y20041134D01*
X32902933Y20007800D01*
X32936266Y19974467D01*
X32969600Y19907800D01*
X33002933Y19774467D01*
X33002933Y19607800D01*
X32969600Y19474467D01*
X32936266Y19407800D01*
X32902933Y19374467D01*
X32836266Y19341134D01*
X32769600Y19341134D01*
X32702933Y19374467D01*
X32669600Y19407800D01*
X32636266Y19474467D01*
X32602933Y19607800D01*
X32602933Y19774467D01*
X32636266Y19907800D01*
X32669600Y19974467D01*
X32702933Y20007800D01*
X32769600Y20041134D01*
X30150266Y16413800D02*
X29816933Y16180467D01*
X30150266Y16013800D02*
X29450266Y16013800D01*
X29450266Y16280467D01*
X29483600Y16347134D01*
X29516933Y16380467D01*
X29583600Y16413800D01*
X29683600Y16413800D01*
X29750266Y16380467D01*
X29783600Y16347134D01*
X29816933Y16280467D01*
X29816933Y16013800D01*
X29516933Y16680467D02*
X29483600Y16713800D01*
X29450266Y16780467D01*
X29450266Y16947134D01*
X29483600Y17013800D01*
X29516933Y17047134D01*
X29583600Y17080467D01*
X29650266Y17080467D01*
X29750266Y17047134D01*
X30150266Y16647134D01*
X30150266Y17080467D01*
X30150266Y17747134D02*
X30150266Y17347134D01*
X30150266Y17547134D02*
X29450266Y17547134D01*
X29550266Y17480467D01*
X29616933Y17413800D01*
X29650266Y17347134D01*
X59228600Y36867134D02*
X58995266Y37200467D01*
X58828600Y36867134D02*
X58828600Y37567134D01*
X59095266Y37567134D01*
X59161933Y37533800D01*
X59195266Y37500467D01*
X59228600Y37433800D01*
X59228600Y37333800D01*
X59195266Y37267134D01*
X59161933Y37233800D01*
X59095266Y37200467D01*
X58828600Y37200467D01*
X59495266Y37500467D02*
X59528600Y37533800D01*
X59595266Y37567134D01*
X59761933Y37567134D01*
X59828600Y37533800D01*
X59861933Y37500467D01*
X59895266Y37433800D01*
X59895266Y37367134D01*
X59861933Y37267134D01*
X59461933Y36867134D01*
X59895266Y36867134D01*
X60161933Y37500467D02*
X60195266Y37533800D01*
X60261933Y37567134D01*
X60428600Y37567134D01*
X60495266Y37533800D01*
X60528600Y37500467D01*
X60561933Y37433800D01*
X60561933Y37367134D01*
X60528600Y37267134D01*
X60128600Y36867134D01*
X60561933Y36867134D01*
X51786286Y34886964D02*
X51552952Y35220297D01*
X51386286Y34886964D02*
X51386286Y35586964D01*
X51652952Y35586964D01*
X51719619Y35553630D01*
X51752952Y35520297D01*
X51786286Y35453630D01*
X51786286Y35353630D01*
X51752952Y35286964D01*
X51719619Y35253630D01*
X51652952Y35220297D01*
X51386286Y35220297D01*
X52052952Y35520297D02*
X52086286Y35553630D01*
X52152952Y35586964D01*
X52319619Y35586964D01*
X52386286Y35553630D01*
X52419619Y35520297D01*
X52452952Y35453630D01*
X52452952Y35386964D01*
X52419619Y35286964D01*
X52019619Y34886964D01*
X52452952Y34886964D01*
X52686286Y35586964D02*
X53119619Y35586964D01*
X52886286Y35320297D01*
X52986286Y35320297D01*
X53052952Y35286964D01*
X53086286Y35253630D01*
X53119619Y35186964D01*
X53119619Y35020297D01*
X53086286Y34953630D01*
X53052952Y34920297D01*
X52986286Y34886964D01*
X52786286Y34886964D01*
X52719619Y34920297D01*
X52686286Y34953630D01*
X63932266Y23779800D02*
X63598933Y23546467D01*
X63932266Y23379800D02*
X63232266Y23379800D01*
X63232266Y23646467D01*
X63265600Y23713134D01*
X63298933Y23746467D01*
X63365600Y23779800D01*
X63465600Y23779800D01*
X63532266Y23746467D01*
X63565600Y23713134D01*
X63598933Y23646467D01*
X63598933Y23379800D01*
X63298933Y24046467D02*
X63265600Y24079800D01*
X63232266Y24146467D01*
X63232266Y24313134D01*
X63265600Y24379800D01*
X63298933Y24413134D01*
X63365600Y24446467D01*
X63432266Y24446467D01*
X63532266Y24413134D01*
X63932266Y24013134D01*
X63932266Y24446467D01*
X63232266Y25079800D02*
X63232266Y24746467D01*
X63565600Y24713134D01*
X63532266Y24746467D01*
X63498933Y24813134D01*
X63498933Y24979800D01*
X63532266Y25046467D01*
X63565600Y25079800D01*
X63632266Y25113134D01*
X63798933Y25113134D01*
X63865600Y25079800D01*
X63898933Y25046467D01*
X63932266Y24979800D01*
X63932266Y24813134D01*
X63898933Y24746467D01*
X63865600Y24713134D01*
X64186266Y28605800D02*
X63852933Y28372467D01*
X64186266Y28205800D02*
X63486266Y28205800D01*
X63486266Y28472467D01*
X63519600Y28539134D01*
X63552933Y28572467D01*
X63619600Y28605800D01*
X63719600Y28605800D01*
X63786266Y28572467D01*
X63819600Y28539134D01*
X63852933Y28472467D01*
X63852933Y28205800D01*
X63552933Y28872467D02*
X63519600Y28905800D01*
X63486266Y28972467D01*
X63486266Y29139134D01*
X63519600Y29205800D01*
X63552933Y29239134D01*
X63619600Y29272467D01*
X63686266Y29272467D01*
X63786266Y29239134D01*
X64186266Y28839134D01*
X64186266Y29272467D01*
X63486266Y29872467D02*
X63486266Y29739134D01*
X63519600Y29672467D01*
X63552933Y29639134D01*
X63652933Y29572467D01*
X63786266Y29539134D01*
X64052933Y29539134D01*
X64119600Y29572467D01*
X64152933Y29605800D01*
X64186266Y29672467D01*
X64186266Y29805800D01*
X64152933Y29872467D01*
X64119600Y29905800D01*
X64052933Y29939134D01*
X63886266Y29939134D01*
X63819600Y29905800D01*
X63786266Y29872467D01*
X63752933Y29805800D01*
X63752933Y29672467D01*
X63786266Y29605800D01*
X63819600Y29572467D01*
X63886266Y29539134D01*
X31092600Y21184134D02*
X31492600Y21184134D01*
X31292600Y20484134D02*
X31292600Y21184134D01*
X31725933Y20484134D02*
X31725933Y21184134D01*
X31725933Y20850800D02*
X32125933Y20850800D01*
X32125933Y20484134D02*
X32125933Y21184134D01*
X32425933Y21117467D02*
X32459266Y21150800D01*
X32525933Y21184134D01*
X32692600Y21184134D01*
X32759266Y21150800D01*
X32792600Y21117467D01*
X32825933Y21050800D01*
X32825933Y20984134D01*
X32792600Y20884134D01*
X32392600Y20484134D01*
X32825933Y20484134D01*
X11678266Y13945134D02*
X12078266Y13945134D01*
X11878266Y13245134D02*
X11878266Y13945134D01*
X12311600Y13245134D02*
X12311600Y13945134D01*
X12578266Y13945134D01*
X12644933Y13911800D01*
X12678266Y13878467D01*
X12711600Y13811800D01*
X12711600Y13711800D01*
X12678266Y13645134D01*
X12644933Y13611800D01*
X12578266Y13578467D01*
X12311600Y13578467D01*
X13378266Y13245134D02*
X12978266Y13245134D01*
X13178266Y13245134D02*
X13178266Y13945134D01*
X13111600Y13845134D01*
X13044933Y13778467D01*
X12978266Y13745134D01*
X7106266Y17755134D02*
X7506266Y17755134D01*
X7306266Y17055134D02*
X7306266Y17755134D01*
X7739600Y17055134D02*
X7739600Y17755134D01*
X8006266Y17755134D01*
X8072933Y17721800D01*
X8106266Y17688467D01*
X8139600Y17621800D01*
X8139600Y17521800D01*
X8106266Y17455134D01*
X8072933Y17421800D01*
X8006266Y17388467D01*
X7739600Y17388467D01*
X8406266Y17688467D02*
X8439600Y17721800D01*
X8506266Y17755134D01*
X8672933Y17755134D01*
X8739600Y17721800D01*
X8772933Y17688467D01*
X8806266Y17621800D01*
X8806266Y17555134D01*
X8772933Y17455134D01*
X8372933Y17055134D01*
X8806266Y17055134D01*
X25605266Y35204134D02*
X26005266Y35204134D01*
X25805266Y34504134D02*
X25805266Y35204134D01*
X26238600Y34504134D02*
X26238600Y35204134D01*
X26505266Y35204134D01*
X26571933Y35170800D01*
X26605266Y35137467D01*
X26638600Y35070800D01*
X26638600Y34970800D01*
X26605266Y34904134D01*
X26571933Y34870800D01*
X26505266Y34837467D01*
X26238600Y34837467D01*
X26871933Y35204134D02*
X27305266Y35204134D01*
X27071933Y34937467D01*
X27171933Y34937467D01*
X27238600Y34904134D01*
X27271933Y34870800D01*
X27305266Y34804134D01*
X27305266Y34637467D01*
X27271933Y34570800D01*
X27238600Y34537467D01*
X27171933Y34504134D01*
X26971933Y34504134D01*
X26905266Y34537467D01*
X26871933Y34570800D01*
X23108266Y25121134D02*
X23508266Y25121134D01*
X23308266Y24421134D02*
X23308266Y25121134D01*
X23741600Y24421134D02*
X23741600Y25121134D01*
X24008266Y25121134D01*
X24074933Y25087800D01*
X24108266Y25054467D01*
X24141600Y24987800D01*
X24141600Y24887800D01*
X24108266Y24821134D01*
X24074933Y24787800D01*
X24008266Y24754467D01*
X23741600Y24754467D01*
X24741600Y24887800D02*
X24741600Y24421134D01*
X24574933Y25154467D02*
X24408266Y24654467D01*
X24841600Y24654467D01*
X22805266Y35204134D02*
X23205266Y35204134D01*
X23005266Y34504134D02*
X23005266Y35204134D01*
X23438600Y34504134D02*
X23438600Y35204134D01*
X23705266Y35204134D01*
X23771933Y35170800D01*
X23805266Y35137467D01*
X23838600Y35070800D01*
X23838600Y34970800D01*
X23805266Y34904134D01*
X23771933Y34870800D01*
X23705266Y34837467D01*
X23438600Y34837467D01*
X24471933Y35204134D02*
X24138600Y35204134D01*
X24105266Y34870800D01*
X24138600Y34904134D01*
X24205266Y34937467D01*
X24371933Y34937467D01*
X24438600Y34904134D01*
X24471933Y34870800D01*
X24505266Y34804134D01*
X24505266Y34637467D01*
X24471933Y34570800D01*
X24438600Y34537467D01*
X24371933Y34504134D01*
X24205266Y34504134D01*
X24138600Y34537467D01*
X24105266Y34570800D01*
X7233266Y21438134D02*
X7633266Y21438134D01*
X7433266Y20738134D02*
X7433266Y21438134D01*
X7866600Y20738134D02*
X7866600Y21438134D01*
X8133266Y21438134D01*
X8199933Y21404800D01*
X8233266Y21371467D01*
X8266600Y21304800D01*
X8266600Y21204800D01*
X8233266Y21138134D01*
X8199933Y21104800D01*
X8133266Y21071467D01*
X7866600Y21071467D01*
X8866600Y21438134D02*
X8733266Y21438134D01*
X8666600Y21404800D01*
X8633266Y21371467D01*
X8566600Y21271467D01*
X8533266Y21138134D01*
X8533266Y20871467D01*
X8566600Y20804800D01*
X8599933Y20771467D01*
X8666600Y20738134D01*
X8799933Y20738134D01*
X8866600Y20771467D01*
X8899933Y20804800D01*
X8933266Y20871467D01*
X8933266Y21038134D01*
X8899933Y21104800D01*
X8866600Y21138134D01*
X8799933Y21171467D01*
X8666600Y21171467D01*
X8599933Y21138134D01*
X8566600Y21104800D01*
X8533266Y21038134D01*
X35405266Y21904134D02*
X35805266Y21904134D01*
X35605266Y21204134D02*
X35605266Y21904134D01*
X36038600Y21204134D02*
X36038600Y21904134D01*
X36305266Y21904134D01*
X36371933Y21870800D01*
X36405266Y21837467D01*
X36438600Y21770800D01*
X36438600Y21670800D01*
X36405266Y21604134D01*
X36371933Y21570800D01*
X36305266Y21537467D01*
X36038600Y21537467D01*
X36671933Y21904134D02*
X37138600Y21904134D01*
X36838600Y21204134D01*
X8376266Y37694134D02*
X8776266Y37694134D01*
X8576266Y36994134D02*
X8576266Y37694134D01*
X9009600Y36994134D02*
X9009600Y37694134D01*
X9276266Y37694134D01*
X9342933Y37660800D01*
X9376266Y37627467D01*
X9409600Y37560800D01*
X9409600Y37460800D01*
X9376266Y37394134D01*
X9342933Y37360800D01*
X9276266Y37327467D01*
X9009600Y37327467D01*
X9809600Y37394134D02*
X9742933Y37427467D01*
X9709600Y37460800D01*
X9676266Y37527467D01*
X9676266Y37560800D01*
X9709600Y37627467D01*
X9742933Y37660800D01*
X9809600Y37694134D01*
X9942933Y37694134D01*
X10009600Y37660800D01*
X10042933Y37627467D01*
X10076266Y37560800D01*
X10076266Y37527467D01*
X10042933Y37460800D01*
X10009600Y37427467D01*
X9942933Y37394134D01*
X9809600Y37394134D01*
X9742933Y37360800D01*
X9709600Y37327467D01*
X9676266Y37260800D01*
X9676266Y37127467D01*
X9709600Y37060800D01*
X9742933Y37027467D01*
X9809600Y36994134D01*
X9942933Y36994134D01*
X10009600Y37027467D01*
X10042933Y37060800D01*
X10076266Y37127467D01*
X10076266Y37260800D01*
X10042933Y37327467D01*
X10009600Y37360800D01*
X9942933Y37394134D01*
X43865266Y31744134D02*
X44265266Y31744134D01*
X44065266Y31044134D02*
X44065266Y31744134D01*
X44498600Y31044134D02*
X44498600Y31744134D01*
X44765266Y31744134D01*
X44831933Y31710800D01*
X44865266Y31677467D01*
X44898600Y31610800D01*
X44898600Y31510800D01*
X44865266Y31444134D01*
X44831933Y31410800D01*
X44765266Y31377467D01*
X44498600Y31377467D01*
X45231933Y31044134D02*
X45365266Y31044134D01*
X45431933Y31077467D01*
X45465266Y31110800D01*
X45531933Y31210800D01*
X45565266Y31344134D01*
X45565266Y31610800D01*
X45531933Y31677467D01*
X45498600Y31710800D01*
X45431933Y31744134D01*
X45298600Y31744134D01*
X45231933Y31710800D01*
X45198600Y31677467D01*
X45165266Y31610800D01*
X45165266Y31444134D01*
X45198600Y31377467D01*
X45231933Y31344134D01*
X45298600Y31310800D01*
X45431933Y31310800D01*
X45498600Y31344134D01*
X45531933Y31377467D01*
X45565266Y31444134D01*
X40046933Y22327134D02*
X40446933Y22327134D01*
X40246933Y21627134D02*
X40246933Y22327134D01*
X40680266Y21627134D02*
X40680266Y22327134D01*
X40946933Y22327134D01*
X41013600Y22293800D01*
X41046933Y22260467D01*
X41080266Y22193800D01*
X41080266Y22093800D01*
X41046933Y22027134D01*
X41013600Y21993800D01*
X40946933Y21960467D01*
X40680266Y21960467D01*
X41746933Y21627134D02*
X41346933Y21627134D01*
X41546933Y21627134D02*
X41546933Y22327134D01*
X41480266Y22227134D01*
X41413600Y22160467D01*
X41346933Y22127134D01*
X42180266Y22327134D02*
X42246933Y22327134D01*
X42313600Y22293800D01*
X42346933Y22260467D01*
X42380266Y22193800D01*
X42413600Y22060467D01*
X42413600Y21893800D01*
X42380266Y21760467D01*
X42346933Y21693800D01*
X42313600Y21660467D01*
X42246933Y21627134D01*
X42180266Y21627134D01*
X42113600Y21660467D01*
X42080266Y21693800D01*
X42046933Y21760467D01*
X42013600Y21893800D01*
X42013600Y22060467D01*
X42046933Y22193800D01*
X42080266Y22260467D01*
X42113600Y22293800D01*
X42180266Y22327134D01*
X8622266Y27458134D02*
X8622266Y27858134D01*
X9322266Y27658134D02*
X8622266Y27658134D01*
X9322266Y28091467D02*
X8622266Y28091467D01*
X8622266Y28358134D01*
X8655600Y28424800D01*
X8688933Y28458134D01*
X8755600Y28491467D01*
X8855600Y28491467D01*
X8922266Y28458134D01*
X8955600Y28424800D01*
X8988933Y28358134D01*
X8988933Y28091467D01*
X9322266Y29158134D02*
X9322266Y28758134D01*
X9322266Y28958134D02*
X8622266Y28958134D01*
X8722266Y28891467D01*
X8788933Y28824800D01*
X8822266Y28758134D01*
X9322266Y29824800D02*
X9322266Y29424800D01*
X9322266Y29624800D02*
X8622266Y29624800D01*
X8722266Y29558134D01*
X8788933Y29491467D01*
X8822266Y29424800D01*
X5756933Y30044134D02*
X6156933Y30044134D01*
X5956933Y29344134D02*
X5956933Y30044134D01*
X6390266Y29344134D02*
X6390266Y30044134D01*
X6656933Y30044134D01*
X6723600Y30010800D01*
X6756933Y29977467D01*
X6790266Y29910800D01*
X6790266Y29810800D01*
X6756933Y29744134D01*
X6723600Y29710800D01*
X6656933Y29677467D01*
X6390266Y29677467D01*
X7456933Y29344134D02*
X7056933Y29344134D01*
X7256933Y29344134D02*
X7256933Y30044134D01*
X7190266Y29944134D01*
X7123600Y29877467D01*
X7056933Y29844134D01*
X7723600Y29977467D02*
X7756933Y30010800D01*
X7823600Y30044134D01*
X7990266Y30044134D01*
X8056933Y30010800D01*
X8090266Y29977467D01*
X8123600Y29910800D01*
X8123600Y29844134D01*
X8090266Y29744134D01*
X7690266Y29344134D01*
X8123600Y29344134D01*
X41570933Y18517134D02*
X41970933Y18517134D01*
X41770933Y17817134D02*
X41770933Y18517134D01*
X42204266Y17817134D02*
X42204266Y18517134D01*
X42470933Y18517134D01*
X42537600Y18483800D01*
X42570933Y18450467D01*
X42604266Y18383800D01*
X42604266Y18283800D01*
X42570933Y18217134D01*
X42537600Y18183800D01*
X42470933Y18150467D01*
X42204266Y18150467D01*
X43270933Y17817134D02*
X42870933Y17817134D01*
X43070933Y17817134D02*
X43070933Y18517134D01*
X43004266Y18417134D01*
X42937600Y18350467D01*
X42870933Y18317134D01*
X43504266Y18517134D02*
X43937600Y18517134D01*
X43704266Y18250467D01*
X43804266Y18250467D01*
X43870933Y18217134D01*
X43904266Y18183800D01*
X43937600Y18117134D01*
X43937600Y17950467D01*
X43904266Y17883800D01*
X43870933Y17850467D01*
X43804266Y17817134D01*
X43604266Y17817134D01*
X43537600Y17850467D01*
X43504266Y17883800D01*
X24771933Y10262134D02*
X25171933Y10262134D01*
X24971933Y9562134D02*
X24971933Y10262134D01*
X25405266Y9562134D02*
X25405266Y10262134D01*
X25671933Y10262134D01*
X25738600Y10228800D01*
X25771933Y10195467D01*
X25805266Y10128800D01*
X25805266Y10028800D01*
X25771933Y9962134D01*
X25738600Y9928800D01*
X25671933Y9895467D01*
X25405266Y9895467D01*
X26471933Y9562134D02*
X26071933Y9562134D01*
X26271933Y9562134D02*
X26271933Y10262134D01*
X26205266Y10162134D01*
X26138600Y10095467D01*
X26071933Y10062134D01*
X27071933Y10028800D02*
X27071933Y9562134D01*
X26905266Y10295467D02*
X26738600Y9795467D01*
X27171933Y9795467D01*
X54905933Y37948134D02*
X55305933Y37948134D01*
X55105933Y37248134D02*
X55105933Y37948134D01*
X55539266Y37248134D02*
X55539266Y37948134D01*
X55805933Y37948134D01*
X55872600Y37914800D01*
X55905933Y37881467D01*
X55939266Y37814800D01*
X55939266Y37714800D01*
X55905933Y37648134D01*
X55872600Y37614800D01*
X55805933Y37581467D01*
X55539266Y37581467D01*
X56605933Y37248134D02*
X56205933Y37248134D01*
X56405933Y37248134D02*
X56405933Y37948134D01*
X56339266Y37848134D01*
X56272600Y37781467D01*
X56205933Y37748134D01*
X57239266Y37948134D02*
X56905933Y37948134D01*
X56872600Y37614800D01*
X56905933Y37648134D01*
X56972600Y37681467D01*
X57139266Y37681467D01*
X57205933Y37648134D01*
X57239266Y37614800D01*
X57272600Y37548134D01*
X57272600Y37381467D01*
X57239266Y37314800D01*
X57205933Y37281467D01*
X57139266Y37248134D01*
X56972600Y37248134D01*
X56905933Y37281467D01*
X56872600Y37314800D01*
X44944266Y20981134D02*
X44944266Y21381134D01*
X45644266Y21181134D02*
X44944266Y21181134D01*
X45644266Y21614467D02*
X44944266Y21614467D01*
X44944266Y21881134D01*
X44977600Y21947800D01*
X45010933Y21981134D01*
X45077600Y22014467D01*
X45177600Y22014467D01*
X45244266Y21981134D01*
X45277600Y21947800D01*
X45310933Y21881134D01*
X45310933Y21614467D01*
X45644266Y22681134D02*
X45644266Y22281134D01*
X45644266Y22481134D02*
X44944266Y22481134D01*
X45044266Y22414467D01*
X45110933Y22347800D01*
X45144266Y22281134D01*
X44944266Y23281134D02*
X44944266Y23147800D01*
X44977600Y23081134D01*
X45010933Y23047800D01*
X45110933Y22981134D01*
X45244266Y22947800D01*
X45510933Y22947800D01*
X45577600Y22981134D01*
X45610933Y23014467D01*
X45644266Y23081134D01*
X45644266Y23214467D01*
X45610933Y23281134D01*
X45577600Y23314467D01*
X45510933Y23347800D01*
X45344266Y23347800D01*
X45277600Y23314467D01*
X45244266Y23281134D01*
X45210933Y23214467D01*
X45210933Y23081134D01*
X45244266Y23014467D01*
X45277600Y22981134D01*
X45344266Y22947800D01*
X47539933Y17882134D02*
X47939933Y17882134D01*
X47739933Y17182134D02*
X47739933Y17882134D01*
X48173266Y17182134D02*
X48173266Y17882134D01*
X48439933Y17882134D01*
X48506600Y17848800D01*
X48539933Y17815467D01*
X48573266Y17748800D01*
X48573266Y17648800D01*
X48539933Y17582134D01*
X48506600Y17548800D01*
X48439933Y17515467D01*
X48173266Y17515467D01*
X49239933Y17182134D02*
X48839933Y17182134D01*
X49039933Y17182134D02*
X49039933Y17882134D01*
X48973266Y17782134D01*
X48906600Y17715467D01*
X48839933Y17682134D01*
X49473266Y17882134D02*
X49939933Y17882134D01*
X49639933Y17182134D01*
X63795933Y34519134D02*
X64195933Y34519134D01*
X63995933Y33819134D02*
X63995933Y34519134D01*
X64429266Y33819134D02*
X64429266Y34519134D01*
X64695933Y34519134D01*
X64762600Y34485800D01*
X64795933Y34452467D01*
X64829266Y34385800D01*
X64829266Y34285800D01*
X64795933Y34219134D01*
X64762600Y34185800D01*
X64695933Y34152467D01*
X64429266Y34152467D01*
X65495933Y33819134D02*
X65095933Y33819134D01*
X65295933Y33819134D02*
X65295933Y34519134D01*
X65229266Y34419134D01*
X65162600Y34352467D01*
X65095933Y34319134D01*
X65895933Y34219134D02*
X65829266Y34252467D01*
X65795933Y34285800D01*
X65762600Y34352467D01*
X65762600Y34385800D01*
X65795933Y34452467D01*
X65829266Y34485800D01*
X65895933Y34519134D01*
X66029266Y34519134D01*
X66095933Y34485800D01*
X66129266Y34452467D01*
X66162600Y34385800D01*
X66162600Y34352467D01*
X66129266Y34285800D01*
X66095933Y34252467D01*
X66029266Y34219134D01*
X65895933Y34219134D01*
X65829266Y34185800D01*
X65795933Y34152467D01*
X65762600Y34085800D01*
X65762600Y33952467D01*
X65795933Y33885800D01*
X65829266Y33852467D01*
X65895933Y33819134D01*
X66029266Y33819134D01*
X66095933Y33852467D01*
X66129266Y33885800D01*
X66162600Y33952467D01*
X66162600Y34085800D01*
X66129266Y34152467D01*
X66095933Y34185800D01*
X66029266Y34219134D01*
X64938933Y23470134D02*
X65338933Y23470134D01*
X65138933Y22770134D02*
X65138933Y23470134D01*
X65572266Y22770134D02*
X65572266Y23470134D01*
X65838933Y23470134D01*
X65905600Y23436800D01*
X65938933Y23403467D01*
X65972266Y23336800D01*
X65972266Y23236800D01*
X65938933Y23170134D01*
X65905600Y23136800D01*
X65838933Y23103467D01*
X65572266Y23103467D01*
X66638933Y22770134D02*
X66238933Y22770134D01*
X66438933Y22770134D02*
X66438933Y23470134D01*
X66372266Y23370134D01*
X66305600Y23303467D01*
X66238933Y23270134D01*
X66972266Y22770134D02*
X67105600Y22770134D01*
X67172266Y22803467D01*
X67205600Y22836800D01*
X67272266Y22936800D01*
X67305600Y23070134D01*
X67305600Y23336800D01*
X67272266Y23403467D01*
X67238933Y23436800D01*
X67172266Y23470134D01*
X67038933Y23470134D01*
X66972266Y23436800D01*
X66938933Y23403467D01*
X66905600Y23336800D01*
X66905600Y23170134D01*
X66938933Y23103467D01*
X66972266Y23070134D01*
X67038933Y23036800D01*
X67172266Y23036800D01*
X67238933Y23070134D01*
X67272266Y23103467D01*
X67305600Y23170134D01*
X20791266Y26645134D02*
X20791266Y26078467D01*
X20824600Y26011800D01*
X20857933Y25978467D01*
X20924600Y25945134D01*
X21057933Y25945134D01*
X21124600Y25978467D01*
X21157933Y26011800D01*
X21191266Y26078467D01*
X21191266Y26645134D01*
X21891266Y25945134D02*
X21491266Y25945134D01*
X21691266Y25945134D02*
X21691266Y26645134D01*
X21624600Y26545134D01*
X21557933Y26478467D01*
X21491266Y26445134D01*
X36793266Y31471134D02*
X36793266Y30904467D01*
X36826600Y30837800D01*
X36859933Y30804467D01*
X36926600Y30771134D01*
X37059933Y30771134D01*
X37126600Y30804467D01*
X37159933Y30837800D01*
X37193266Y30904467D01*
X37193266Y31471134D01*
X37493266Y31404467D02*
X37526600Y31437800D01*
X37593266Y31471134D01*
X37759933Y31471134D01*
X37826600Y31437800D01*
X37859933Y31404467D01*
X37893266Y31337800D01*
X37893266Y31271134D01*
X37859933Y31171134D01*
X37459933Y30771134D01*
X37893266Y30771134D01*
X59018266Y30836134D02*
X59018266Y30269467D01*
X59051600Y30202800D01*
X59084933Y30169467D01*
X59151600Y30136134D01*
X59284933Y30136134D01*
X59351600Y30169467D01*
X59384933Y30202800D01*
X59418266Y30269467D01*
X59418266Y30836134D01*
X59684933Y30836134D02*
X60118266Y30836134D01*
X59884933Y30569467D01*
X59984933Y30569467D01*
X60051600Y30536134D01*
X60084933Y30502800D01*
X60118266Y30436134D01*
X60118266Y30269467D01*
X60084933Y30202800D01*
X60051600Y30169467D01*
X59984933Y30136134D01*
X59784933Y30136134D01*
X59718266Y30169467D01*
X59684933Y30202800D01*
%LPC*%
D16*
X36638600Y4822800D03*
X33338600Y4822800D03*
X30588600Y4822800D03*
X31488600Y5372800D03*
X30588600Y5922800D03*
X31488600Y6472800D03*
X30588600Y7022800D03*
X31488600Y7572800D03*
X30588600Y8122800D03*
X31488600Y8672800D03*
X30588600Y9222800D03*
X31488600Y9772800D03*
X30588600Y10322800D03*
X31488600Y10872800D03*
X30588600Y11422800D03*
X31488600Y11972800D03*
X30588600Y12522800D03*
X30588600Y13622800D03*
X31688600Y13622800D03*
X32238600Y12722800D03*
X32788600Y13622800D03*
X33338600Y12722800D03*
X33888600Y13622800D03*
X34438600Y12722800D03*
X34988600Y13622800D03*
X35538600Y12722800D03*
X36088600Y13622800D03*
X36638600Y12722800D03*
X37188600Y13622800D03*
X37738600Y12722800D03*
X38288600Y13622800D03*
X39388600Y13622800D03*
X39388600Y12522800D03*
X38488600Y11972800D03*
X39388600Y11422800D03*
X38488600Y10872800D03*
X39388600Y10322800D03*
X38488600Y9772800D03*
X39388600Y9222800D03*
X38488600Y8672800D03*
X39388600Y8122800D03*
X38488600Y7572800D03*
X39388600Y7022800D03*
X38488600Y6472800D03*
X39388600Y5922800D03*
X38488600Y5372800D03*
X39388600Y4822800D03*
D17*
X78994000Y37744400D03*
D18*
X76454000Y37744400D03*
D19*
X12988600Y17397800D03*
X12988600Y20347800D03*
D20*
X60436286Y34063630D03*
X60436286Y32153630D03*
X80688600Y30227800D03*
X80688600Y28317800D03*
D21*
X76688600Y29672800D03*
D22*
X75663600Y28197800D03*
X77713600Y28197800D03*
X75663600Y31147800D03*
X77713600Y31147800D03*
D21*
X76688600Y17672800D03*
D22*
X75663600Y16197800D03*
X77713600Y16197800D03*
X75663600Y19147800D03*
X77713600Y19147800D03*
D21*
X76688600Y5672800D03*
D22*
X75663600Y4197800D03*
X77713600Y4197800D03*
X75663600Y7147800D03*
X77713600Y7147800D03*
D23*
X56961286Y28853630D03*
X60111286Y28853630D03*
D24*
X43321250Y13321758D03*
X43321250Y10821758D03*
D25*
X10984117Y25547279D03*
X10984117Y23797279D03*
X14984117Y25547279D03*
X14984117Y23797279D03*
X31488600Y28572800D03*
X31488600Y30322800D03*
X22584117Y21497279D03*
X22584117Y23247279D03*
X18884117Y21497279D03*
X18884117Y23247279D03*
D26*
X35513600Y15972800D03*
X37263600Y15972800D03*
D25*
X10984117Y26997279D03*
X10984117Y28747279D03*
X14984117Y26997279D03*
X14984117Y28747279D03*
X31488600Y27347800D03*
X31488600Y25597800D03*
X29888600Y27347800D03*
X29888600Y25597800D03*
D26*
X40363600Y15972800D03*
X38613600Y15972800D03*
X48357071Y21895423D03*
X50107071Y21895423D03*
D25*
X54836286Y31878630D03*
X54836286Y33628630D03*
D17*
X67688600Y28872800D03*
D18*
X67688600Y31412800D03*
X2184400Y23368000D03*
X2184400Y25908000D03*
X2184400Y30988000D03*
X2184400Y33528000D03*
D17*
X2184400Y36068000D03*
D18*
X2184400Y28448000D03*
D27*
X12984117Y25372279D03*
X12984117Y22372279D03*
X12984117Y27172279D03*
X12984117Y30172279D03*
D28*
X45321250Y10484258D03*
X45321250Y11259258D03*
X45321250Y12571758D03*
X45321250Y13346758D03*
D29*
X54632071Y21695423D03*
X51632071Y21695423D03*
X54632071Y19495423D03*
X51632071Y19495423D03*
D27*
X57452039Y23517833D03*
X57452039Y26517833D03*
X59752039Y23517833D03*
X59752039Y26517833D03*
D30*
X28288600Y18822800D03*
X28288600Y20322800D03*
D31*
X1388600Y13172800D03*
X1388600Y7372800D03*
D32*
X1388600Y6772800D03*
X1388600Y13772800D03*
D33*
X1388600Y11272800D03*
D34*
X4088600Y7772800D03*
D35*
X4088600Y10272800D03*
X4088600Y9622800D03*
X4088600Y8972800D03*
X4088600Y11572800D03*
X4088600Y10922800D03*
D34*
X4088600Y12772800D03*
D33*
X1388600Y9272800D03*
D36*
X66088600Y10752800D03*
X66088600Y13292800D03*
X66088600Y15832800D03*
D37*
X66088600Y18372800D03*
D38*
X17248600Y13922800D03*
X17248600Y17822800D03*
X18518600Y13922800D03*
X18518600Y17822800D03*
X19788600Y13922800D03*
X19788600Y17822800D03*
X21058600Y13922800D03*
X21058600Y17822800D03*
X22328600Y13922800D03*
X22328600Y17822800D03*
D39*
X49686286Y26653630D03*
X54186286Y26653630D03*
D40*
X17884117Y33872279D03*
X15884117Y32922279D03*
X15884117Y34822279D03*
D41*
X11488600Y32772800D03*
X10538600Y34772800D03*
X12438600Y34772800D03*
D26*
X25263600Y29372800D03*
X23513600Y29372800D03*
X25263600Y27772800D03*
X23513600Y27772800D03*
D25*
X19688600Y33322800D03*
X19688600Y31572800D03*
D26*
X23513600Y30972800D03*
X25263600Y30972800D03*
X23513600Y26172800D03*
X25263600Y26172800D03*
D25*
X21288600Y31597800D03*
X21288600Y33347800D03*
X22088600Y29447800D03*
X22088600Y27697800D03*
X14284117Y33097279D03*
X14284117Y34847279D03*
X17884117Y31347279D03*
X17884117Y29597279D03*
X17284117Y21522279D03*
X17284117Y23272279D03*
D26*
X35513600Y17572800D03*
X37263600Y17572800D03*
D25*
X20984117Y23247279D03*
X20984117Y21497279D03*
D26*
X34188600Y32272800D03*
X35938600Y32272800D03*
D25*
X39488600Y29472800D03*
X39488600Y27722800D03*
D26*
X39788600Y25072800D03*
X38038600Y25072800D03*
X36488600Y25072800D03*
X34738600Y25072800D03*
D25*
X8788600Y33097800D03*
X8788600Y34847800D03*
X28288600Y17247800D03*
X28288600Y15497800D03*
D26*
X16688600Y10572800D03*
X18438600Y10572800D03*
X32513600Y17572800D03*
X34263600Y17572800D03*
D25*
X31088600Y15797800D03*
X31088600Y17547800D03*
D26*
X59911286Y35853630D03*
X58161286Y35853630D03*
X53111286Y33553630D03*
X51361286Y33553630D03*
D20*
X61952039Y23962833D03*
X61952039Y25872833D03*
D25*
X62388600Y30447800D03*
X62388600Y28697800D03*
D26*
X34263600Y15972800D03*
X32513600Y15972800D03*
D42*
X10188600Y13772800D03*
X10188600Y17472800D03*
X26488600Y33172800D03*
X25388600Y23272800D03*
X23688600Y33172800D03*
X10188600Y21172800D03*
X36288600Y19872800D03*
X7100600Y37272800D03*
X44748600Y29712800D03*
X38588600Y21872800D03*
X8878600Y26134800D03*
X6888600Y28012800D03*
X45188600Y16372800D03*
X25988600Y11772800D03*
X56028600Y35802800D03*
X45232071Y19595423D03*
X48832071Y19495423D03*
X62788600Y32472800D03*
X66188600Y24972800D03*
D43*
X17784117Y26272279D03*
X18984117Y26272279D03*
D44*
X17384117Y27222279D03*
X17884117Y27222279D03*
X18384117Y27222279D03*
X18884117Y27222279D03*
X19384117Y27222279D03*
X19384117Y25322279D03*
X18884117Y25322279D03*
X18384117Y25322279D03*
X17884117Y25322279D03*
X17384117Y25322279D03*
D45*
X36988600Y29572800D03*
X36988600Y27672800D03*
X34488600Y27672800D03*
X34488600Y28622800D03*
X34488600Y29572800D03*
D46*
X56836286Y33653630D03*
X58136286Y33653630D03*
X57486286Y31453630D03*
X58136286Y31453630D03*
X56836286Y31453630D03*
M02*
