%TF.GenerationSoftware,KiCad,Pcbnew,(6.0.0-rc1-dev-233-g53236a383)*%
%TF.CreationDate,2018-10-22T11:17:08+02:00*%
%TF.ProjectId,LEOLED_rev1,4C454F4C45445F726576312E6B696361,1*%
%TF.SameCoordinates,Original*%
%TF.FileFunction,Paste,Top*%
%TF.FilePolarity,Positive*%
%FSLAX46Y46*%
G04 Gerber Fmt 4.6, Leading zero omitted, Abs format (unit mm)*
G04 Created by KiCad (PCBNEW (6.0.0-rc1-dev-233-g53236a383)) date 10/22/18 11:17:08*
%MOMM*%
%LPD*%
G01*
G04 APERTURE LIST*
%ADD10R,0.500000X0.500000*%
%ADD11R,1.220000X1.250000*%
%ADD12R,1.500000X0.970000*%
%ADD13R,3.200000X0.700000*%
%ADD14R,1.150000X1.300000*%
%ADD15R,0.900000X0.950000*%
%ADD16R,1.900000X1.100000*%
%ADD17R,1.000000X0.670000*%
%ADD18R,0.670000X1.000000*%
%ADD19R,1.600000X1.000000*%
%ADD20R,0.650000X0.575000*%
%ADD21R,1.000000X1.600000*%
%ADD22R,0.800000X0.800000*%
%ADD23R,1.900000X1.500000*%
%ADD24R,1.350000X0.400000*%
%ADD25R,0.740000X2.400000*%
%ADD26R,2.000000X1.800000*%
%ADD27R,0.900000X0.800000*%
%ADD28R,0.800000X0.900000*%
%ADD29R,1.080000X0.720000*%
%ADD30R,0.250000X0.500000*%
%ADD31R,1.300000X0.550000*%
%ADD32R,0.400000X0.900000*%
G04 APERTURE END LIST*
D10*
X36638600Y4822800D03*
X33338600Y4822800D03*
X30588600Y4822800D03*
X31488600Y5372800D03*
X30588600Y5922800D03*
X31488600Y6472800D03*
X30588600Y7022800D03*
X31488600Y7572800D03*
X30588600Y8122800D03*
X31488600Y8672800D03*
X30588600Y9222800D03*
X31488600Y9772800D03*
X30588600Y10322800D03*
X31488600Y10872800D03*
X30588600Y11422800D03*
X31488600Y11972800D03*
X30588600Y12522800D03*
X30588600Y13622800D03*
X31688600Y13622800D03*
X32238600Y12722800D03*
X32788600Y13622800D03*
X33338600Y12722800D03*
X33888600Y13622800D03*
X34438600Y12722800D03*
X34988600Y13622800D03*
X35538600Y12722800D03*
X36088600Y13622800D03*
X36638600Y12722800D03*
X37188600Y13622800D03*
X37738600Y12722800D03*
X38288600Y13622800D03*
X39388600Y13622800D03*
X39388600Y12522800D03*
X38488600Y11972800D03*
X39388600Y11422800D03*
X38488600Y10872800D03*
X39388600Y10322800D03*
X38488600Y9772800D03*
X39388600Y9222800D03*
X38488600Y8672800D03*
X39388600Y8122800D03*
X38488600Y7572800D03*
X39388600Y7022800D03*
X38488600Y6472800D03*
X39388600Y5922800D03*
X38488600Y5372800D03*
X39388600Y4822800D03*
D11*
X12988600Y17397800D03*
X12988600Y20347800D03*
D12*
X60436286Y34063630D03*
X60436286Y32153630D03*
X80688600Y30227800D03*
X80688600Y28317800D03*
D13*
X76688600Y29672800D03*
D14*
X75663600Y28197800D03*
X77713600Y28197800D03*
X75663600Y31147800D03*
X77713600Y31147800D03*
D13*
X76688600Y17672800D03*
D14*
X75663600Y16197800D03*
X77713600Y16197800D03*
X75663600Y19147800D03*
X77713600Y19147800D03*
D13*
X76688600Y5672800D03*
D14*
X75663600Y4197800D03*
X77713600Y4197800D03*
X75663600Y7147800D03*
X77713600Y7147800D03*
D15*
X56961286Y28853630D03*
X60111286Y28853630D03*
D16*
X43321250Y13321758D03*
X43321250Y10821758D03*
D17*
X10984117Y25547279D03*
X10984117Y23797279D03*
X14984117Y25547279D03*
X14984117Y23797279D03*
X31488600Y28572800D03*
X31488600Y30322800D03*
X22584117Y21497279D03*
X22584117Y23247279D03*
X18884117Y21497279D03*
X18884117Y23247279D03*
D18*
X35513600Y15972800D03*
X37263600Y15972800D03*
D17*
X10984117Y26997279D03*
X10984117Y28747279D03*
X14984117Y26997279D03*
X14984117Y28747279D03*
X31488600Y27347800D03*
X31488600Y25597800D03*
X29888600Y27347800D03*
X29888600Y25597800D03*
D18*
X40363600Y15972800D03*
X38613600Y15972800D03*
X48357071Y21895423D03*
X50107071Y21895423D03*
D17*
X54836286Y31878630D03*
X54836286Y33628630D03*
D19*
X12984117Y25372279D03*
X12984117Y22372279D03*
X12984117Y27172279D03*
X12984117Y30172279D03*
D20*
X45321250Y10484258D03*
X45321250Y11259258D03*
X45321250Y12571758D03*
X45321250Y13346758D03*
D21*
X54632071Y21695423D03*
X51632071Y21695423D03*
X54632071Y19495423D03*
X51632071Y19495423D03*
D19*
X57452039Y23517833D03*
X57452039Y26517833D03*
X59752039Y23517833D03*
X59752039Y26517833D03*
D22*
X28288600Y18822800D03*
X28288600Y20322800D03*
D23*
X1388600Y11272800D03*
D24*
X4088600Y10272800D03*
X4088600Y9622800D03*
X4088600Y8972800D03*
X4088600Y11572800D03*
X4088600Y10922800D03*
D23*
X1388600Y9272800D03*
D25*
X17248600Y13922800D03*
X17248600Y17822800D03*
X18518600Y13922800D03*
X18518600Y17822800D03*
X19788600Y13922800D03*
X19788600Y17822800D03*
X21058600Y13922800D03*
X21058600Y17822800D03*
X22328600Y13922800D03*
X22328600Y17822800D03*
D26*
X49686286Y26653630D03*
X54186286Y26653630D03*
D27*
X17884117Y33872279D03*
X15884117Y32922279D03*
X15884117Y34822279D03*
D28*
X11488600Y32772800D03*
X10538600Y34772800D03*
X12438600Y34772800D03*
D18*
X25263600Y29372800D03*
X23513600Y29372800D03*
X25263600Y27772800D03*
X23513600Y27772800D03*
D17*
X19688600Y33322800D03*
X19688600Y31572800D03*
D18*
X23513600Y30972800D03*
X25263600Y30972800D03*
X23513600Y26172800D03*
X25263600Y26172800D03*
D17*
X21288600Y31597800D03*
X21288600Y33347800D03*
X22088600Y29447800D03*
X22088600Y27697800D03*
X14284117Y33097279D03*
X14284117Y34847279D03*
X17884117Y31347279D03*
X17884117Y29597279D03*
X17284117Y21522279D03*
X17284117Y23272279D03*
D18*
X35513600Y17572800D03*
X37263600Y17572800D03*
D17*
X20984117Y23247279D03*
X20984117Y21497279D03*
D18*
X34188600Y32272800D03*
X35938600Y32272800D03*
D17*
X39488600Y29472800D03*
X39488600Y27722800D03*
D18*
X39788600Y25072800D03*
X38038600Y25072800D03*
X36488600Y25072800D03*
X34738600Y25072800D03*
D17*
X8788600Y33097800D03*
X8788600Y34847800D03*
X28288600Y17247800D03*
X28288600Y15497800D03*
D18*
X16688600Y10572800D03*
X18438600Y10572800D03*
X32513600Y17572800D03*
X34263600Y17572800D03*
D17*
X31088600Y15797800D03*
X31088600Y17547800D03*
D18*
X59911286Y35853630D03*
X58161286Y35853630D03*
X53111286Y33553630D03*
X51361286Y33553630D03*
D12*
X61952039Y23962833D03*
X61952039Y25872833D03*
D17*
X62388600Y30447800D03*
X62388600Y28697800D03*
D18*
X34263600Y15972800D03*
X32513600Y15972800D03*
D29*
X17784117Y26272279D03*
X18984117Y26272279D03*
D30*
X17384117Y27222279D03*
X17884117Y27222279D03*
X18384117Y27222279D03*
X18884117Y27222279D03*
X19384117Y27222279D03*
X19384117Y25322279D03*
X18884117Y25322279D03*
X18384117Y25322279D03*
X17884117Y25322279D03*
X17384117Y25322279D03*
D31*
X36988600Y29572800D03*
X36988600Y27672800D03*
X34488600Y27672800D03*
X34488600Y28622800D03*
X34488600Y29572800D03*
D32*
X56836286Y33653630D03*
X58136286Y33653630D03*
X57486286Y31453630D03*
X58136286Y31453630D03*
X56836286Y31453630D03*
M02*
