M48
;DRILL file {KiCad (6.0.0-rc1-dev-233-g53236a383)} date 10/22/18 11:08:57
;FORMAT={-:-/ absolute / metric / decimal}
FMAT,2
METRIC,TZ
T1C0.200
T2C0.500
T3C0.600
T4C0.850
T5C1.000
T6C1.097
T7C2.200
%
G90
G05
M71
T1
X17.434Y26.272
X18.384Y26.272
X19.334Y26.272
T2
X7.349Y33.123
X7.459Y34.823
X12.419Y36.173
X15.129Y22.073
X15.956Y20.343
X16.134Y31.773
X16.859Y9.153
X19.689Y34.673
X19.801Y10.514
X21.129Y25.013
X23.699Y13.883
X23.865Y17.88
X24.349Y15.513
X25.169Y21.168
X26.363Y21.285
X26.369Y29.363
X27.929Y24.23
X27.929Y22.706
X28.011Y7.795
X28.31Y30.58
X28.472Y26.172
X29.299Y9.843
X29.819Y20.343
X29.834Y30.58
X29.834Y29.056
X31.149Y18.693
X32.669Y9.263
X32.699Y10.883
X32.799Y5.944
X34.449Y11.513
X34.914Y10.263
X34.914Y8.228
X36.819Y10.333
X36.819Y8.228
X39.74Y17.753
X47.639Y16.313
X48.359Y23.383
X49.646Y15.488
X54.019Y35.783
X73.903Y32.358
X73.903Y31.088
X76.449Y1.813
X78.129Y1.813
X80.634Y19.438
X80.634Y17.438
X80.634Y15.438
X80.634Y13.438
X80.634Y11.438
X80.634Y9.438
X80.634Y7.438
X82.539Y37.438
X82.539Y35.438
X82.539Y33.438
X82.539Y31.438
X82.539Y29.438
X82.539Y27.438
X82.539Y19.438
X82.539Y17.438
X82.539Y15.438
X82.539Y13.438
X82.539Y11.438
X82.539Y9.438
X82.539Y7.438
T4
X4.089Y12.773
X4.089Y7.773
T5
X66.089Y18.373
X66.089Y15.833
X66.089Y13.293
X66.089Y10.753
T6
X2.184Y36.068
X2.184Y33.528
X2.184Y30.988
X2.184Y28.448
X2.184Y25.908
X2.184Y23.368
X67.689Y31.413
X67.689Y28.873
X76.454Y37.744
X78.994Y37.744
T7
X3.454Y18.186
X81.28Y4.369
X64.694Y36.703
X66.065Y6.782
X81.28Y23.8
T3
X1.039Y13.773G85X1.739Y13.773
G05
X1.739Y6.773G85X1.039Y6.773
G05
T0
M30
